<svg width="114" height="76" viewBox="0 0 114 76" fill="none" xmlns="http://www.w3.org/2000/svg">
<rect width="114" height="76" rx="4" fill="white"/>
<g style="mix-blend-mode:multiply" opacity="0.25">
<path d="M40.5624 37.465C43.9959 48.185 55.4122 54.0725 66.061 50.6161C67.6176 50.111 69.0717 49.434 70.4085 48.6134C78.2213 43.8172 82.0573 34.1009 79.1253 24.9486C75.6914 14.229 64.2755 8.34075 53.627 11.7971C42.9786 15.2534 37.1293 26.7453 40.5624 37.465Z" fill="#FFDB94"/>
</g>
<path d="M53.7474 40.6923C53.1476 44.1778 55.8284 45.7058 55.9754 45.8705C56.1224 46.0353 55.7284 46.0558 55.358 46.8585C54.9876 47.6612 54.9876 47.97 54.9876 47.97C51.5918 46.1793 52.1489 43.4881 52.1489 41.2775C51.5734 41.0174 51.2536 40.4323 51.2536 40.2372C51.2837 39.614 51.6373 40.1722 52.1489 40.3022C51.4455 39.7821 50.87 39.3269 51.3176 38.6118C51.7344 37.9458 54.195 38.0916 53.7474 40.6923Z" fill="#C3A35A"/>
<g style="mix-blend-mode:multiply" opacity="0.8">
<path d="M41.7367 38.8198C43.2066 39.0657 44.5837 38.1578 44.8122 36.7923L45.1235 34.9319C47.5737 35.3419 49.8691 33.8287 50.25 31.5523L51.0915 26.5225C51.5447 23.8136 49.5479 21.2216 46.6321 20.7338C43.8594 20.2699 41.2814 22.0338 40.9462 24.6244L39.4762 35.9873C39.3024 37.327 40.3022 38.5797 41.7367 38.8198Z" fill="#FFDB94"/>
</g>
<path opacity="0.8" d="M41.7446 26.4998L41.1526 30.0386C41.1526 30.0386 39.2748 29.5593 39.6019 27.9602C39.9286 26.3611 41.7446 26.4998 41.7446 26.4998Z" fill="#F4D39A"/>
<ellipse rx="0.666197" ry="0.618911" transform="matrix(-0.986291 -0.165013 -0.165014 0.986291 45.4664 27.2905)" fill="#003147"/>
<ellipse rx="0.666196" ry="0.618911" transform="matrix(-0.986291 -0.165013 -0.165013 0.986291 49.6095 27.9836)" fill="#003147"/>
<g style="mix-blend-mode:multiply" opacity="0.8">
<path d="M47.7688 27.6757L49.0381 30.7259L47.307 30.4363L47.7688 27.6757Z" fill="#E8C585"/>
</g>
<g style="mix-blend-mode:multiply" opacity="0.8">
<path d="M45.0719 31.2269L47.8057 31.6843C47.8057 31.6843 47.4752 33.003 46.2339 32.676C44.9936 32.3491 45.0719 31.2269 45.0719 31.2269Z" fill="#E8C585"/>
</g>
<g style="mix-blend-mode:multiply">
<path d="M42.529 24.9288C42.529 24.9288 50.1596 26.1505 51.0746 23.5393C51.989 20.9284 44.1255 14.638 39.9416 19.5485C35.7581 24.4594 36.7822 35.5861 35.3165 35.6125C33.85 35.6387 40.565 36.6791 40.565 36.6791L42.529 24.9288Z" fill="#FFDD6A"/>
</g>
<ellipse rx="0.31898" ry="0.255182" transform="matrix(-0.986292 -0.165012 -0.165015 0.986291 37.5905 46.679)" stroke="white" stroke-width="1.39292"/>
<g style="mix-blend-mode:multiply">
<path d="M44.965 37.6313C44.965 37.6313 41.9292 40.152 39.8744 36.6806C39.8744 36.6806 28.489 35.4904 30.0201 63.0504L51.0251 63.0504C51.0251 63.0504 50.9983 49.247 44.965 37.6313Z" fill="#D8D8D8"/>
</g>
<path d="M50.8703 51.1652C52.328 50.3415 53.086 50.681 53.1403 51.3866C49.6524 52.5492 52.642 55.8549 51.1844 55.5943C50.2181 55.4215 49.5158 55.1647 49.1541 56.314C48.7923 57.4634 47.4867 57.1861 46.6542 57.0372C45.8217 56.8884 44.7328 56.5606 45.023 55.7936C45.3042 55.0506 45.6771 55.0379 46.6829 55.2178C48.1302 55.4766 48.7851 52.3436 50.8703 51.1652Z" fill="#C3A35A"/>
<g style="mix-blend-mode:multiply" opacity="0.8">
<path d="M54.722 47.7322C55.4164 44.7404 58.7724 43.2353 61.4684 44.7065L61.7154 44.8414C64.1306 46.1594 64.9696 49.2186 63.5646 51.5843L60.8216 56.2029C59.5937 58.2704 57.0185 59.1001 54.8147 58.1382L53.2363 57.4494C50.3204 56.1768 50.0805 52.1332 52.8255 50.5248C53.7478 49.9844 54.4073 49.0883 54.649 48.0469L54.722 47.7322Z" fill="#00C5A3"/>
</g>
<g style="mix-blend-mode:multiply" opacity="0.8">
<path d="M77.9443 38.5632C76.309 38.8358 74.7622 37.7309 74.4895 36.0953L74.1181 33.8671C71.3917 34.3215 68.8132 32.4794 68.3588 29.7533L67.3547 23.7291C66.814 20.4852 69.0052 17.4165 72.2494 16.8757C75.3351 16.3614 78.2318 18.5071 78.6396 21.6084L80.4273 35.2106C80.638 36.815 79.5398 38.2973 77.9443 38.5632Z" fill="#7C5600"/>
</g>
<path d="M60.6667 46.6511C59.654 46.1313 59.1362 45.5492 59.6154 44.4635C57.6482 43.4536 56.3502 41.0545 57.1796 39.4388L58.7689 36.305C59.7559 34.3824 62.1828 33.3892 64.5236 34.5908C66.7499 35.7337 67.4362 38.3736 66.4214 40.1618C66.4214 40.1618 63.509 45.1506 63.238 45.4879C62.9669 45.8253 61.8179 47.2421 60.6667 46.6511Z" fill="#C3A35A"/>
<ellipse rx="0.765558" ry="0.701761" transform="matrix(-0.986392 0.164411 0.164411 0.986392 72.8016 24.9802)" fill="#303030"/>
<ellipse rx="0.701761" ry="0.701757" transform="matrix(-0.986392 0.16441 0.164412 0.986392 68.8206 25.7041)" fill="#303030"/>
<path d="M70.7612 25.2637L69.3139 28.9974L71.3276 28.6618L70.7612 25.2637Z" fill="#7C5600"/>
<path d="M74.1372 29.4963L70.9908 30.0208C70.9908 30.0208 71.3656 31.5074 72.7934 31.1349C74.2219 30.7619 74.1372 29.4963 74.1372 29.4963Z" fill="#7C5600"/>
<g style="mix-blend-mode:multiply">
<path d="M80.4013 35.2298C80.4013 35.2298 77.8406 38.8375 74.268 36.0735C74.268 36.0735 65.1841 32.6203 66.7112 63.0506L88.7261 63.0506C88.7261 61.9872 91.0929 38.1198 80.4013 35.2298Z" fill="#FFDD6A"/>
</g>
<g style="mix-blend-mode:multiply" opacity="0.8">
<path d="M77.5981 23.0983L78.3114 27.3774C78.3114 27.3774 80.3539 26.8373 79.967 24.9023C79.5799 22.9677 77.5981 23.0983 77.5981 23.0983Z" fill="#7C5600"/>
</g>
<g style="mix-blend-mode:multiply">
<path d="M79.7688 23.7196C79.7688 23.7196 80.7005 15.4869 74.0914 15.3362C67.4832 15.185 66.8035 20.6385 66.8035 20.6385C66.7346 20.8562 66.7031 21.0544 66.701 21.2351C66.6884 22.3303 68.027 22.8881 68.8252 22.1385C69.312 21.6815 69.9967 21.129 70.7345 20.8175C71.6183 20.4444 72.3587 20.9171 72.7896 21.3248C73.0113 21.5348 73.1727 21.7982 73.2925 22.0797C73.5584 22.7081 74.0837 22.9753 74.5675 23.0817C75.0623 23.1906 75.5709 23.0485 75.9792 22.749C76.0327 22.7101 76.0868 22.6748 76.1412 22.6431C76.6387 22.3521 77.2759 22.648 77.3629 23.2056L77.512 24.2938C77.5404 24.5042 77.811 24.5676 77.9324 24.3937C78.2056 24.0035 78.7363 23.6454 79.7688 23.7196Z" fill="#2B7285"/>
</g>
<path opacity="0.604283" d="M80.7697 35.9613L80.613 36.0538L82.519 39.1864L78.4422 39.1662L78.4401 39.3452L82.8417 39.3671L80.7697 35.9613Z" fill="white"/>
<path opacity="0.604283" d="M74.321 36.1563L74.1664 36.0657L72.1521 38.4981L76.4485 39.2523L76.4628 39.1118L72.4561 38.4085L74.321 36.1563Z" fill="white"/>
<ellipse rx="0.574166" ry="0.574163" transform="matrix(-0.889625 -0.456691 -0.456698 0.889622 62.4194 39.2603)" fill="#303030"/>
<ellipse rx="0.574162" ry="0.574164" transform="matrix(-0.889623 -0.456696 -0.456693 0.889625 59.7256 37.9351)" fill="#303030"/>
<path opacity="0.5" d="M61.0767 38.553L58.8958 39.7281L60.1444 40.3691L61.0767 38.553Z" fill="#7C5600"/>
<path d="M60.7549 41.9731L58.4847 40.8077C58.4847 40.8077 58.0029 41.9657 59.0984 42.4061C60.1946 42.8464 60.7549 41.9731 60.7549 41.9731Z" fill="#7C5600"/>
<g style="mix-blend-mode:multiply" opacity="0.5">
<path d="M65.3944 40.8139L64.4621 42.6301C64.4621 42.6301 65.5571 43.088 65.9492 42.246C66.341 41.4041 65.3944 40.8139 65.3944 40.8139Z" fill="#7C5600"/>
</g>
<path d="M57.994 44.8154C58.0916 48.281 62.2847 49.6797 62.4631 49.8075C62.6415 49.9353 62.8444 50.0537 62.3787 50.9954C61.913 51.9372 61.4178 51.7796 61.4178 51.7796C57.4033 51.3708 56.9652 47.8244 56.5263 45.7045C55.9045 45.5731 55.4715 45.0775 55.4328 44.8904C55.3388 44.2866 55.8 44.7494 56.3327 44.7692C55.5325 44.4146 54.8719 44.0962 55.1734 43.3185C55.4542 42.5944 57.9211 42.2295 57.994 44.8154Z" fill="#C4A35A"/>
<path d="M54.9228 54.4459C56.8137 53.753 57.7293 54.3497 58.3529 55.0368C59.3009 56.1479 59.2157 58.2277 56.3198 59.2626C54.4578 59.928 54.5818 58.727 53.6146 59.5804C52.5301 60.5374 51.1731 60.1835 50.3511 59.8778C49.529 59.5722 49.1737 59.3901 49.4215 58.5456C49.6557 57.7471 50.351 57.78 51.1564 58.2296C52.5045 58.9821 52.5591 55.3121 54.9228 54.4459Z" fill="#C3A35A"/>
<g style="mix-blend-mode:multiply">
<path fill-rule="evenodd" clip-rule="evenodd" d="M56.574 25.6231C57.3517 24.7439 58.6378 24.7164 59.4466 25.5619L59.7145 25.842L59.9442 25.5922C60.7376 24.7297 62.024 24.7297 62.8174 25.5922C63.6108 26.4548 63.6108 27.8533 62.8174 28.7158L59.7703 31.2737L56.6303 28.7461C55.8215 27.9006 55.7963 26.5024 56.574 25.6231Z" fill="#FE635A"/>
</g>
<path d="M37.3862 42.0855C36.0831 40.0702 34.1129 40.7632 33.2916 42.3408C31.5929 45.1633 32.1945 49.2888 33.1683 51.6465C34.1421 54.0042 35.2108 57.9785 37.9047 59.6069C42.1189 61.2521 42.1802 61.1297 45.9557 59.8629C47.9124 59.2064 49.2271 58.5371 50.1683 57.9679C51.4444 57.1963 52.5734 56.1969 53.6266 55.1412L54.1028 54.664C54.4368 54.3292 54.7266 53.9528 54.965 53.5442C55.117 53.2836 54.8416 52.9828 54.5686 53.1113L53.3815 53.6699C53.9921 52.8558 54.6844 52.1062 55.4475 51.4329L56.3621 50.6259C56.3749 50.6146 56.3868 50.6023 56.3977 50.5892C56.6905 50.2379 56.5172 49.8113 56.0819 49.9513C55.0341 50.2882 53.4354 51.3319 52.0407 53.0445C50.1185 55.4049 46.7645 56.5997 45.3278 56.902C36.8394 57.0166 39.4717 45.3108 37.3862 42.0855Z" fill="#FFDB94"/>
<path d="M82.4482 45.0254C83.5778 41.2434 85.4611 41.5687 86.0381 42.75C88.3487 45.8573 86.223 53.6372 84.8612 55.6726C83.4994 57.708 83.1084 58.5351 79.6914 59.9887C75.4951 61.7737 71.6377 60.5918 69.6161 60.0146C67.5946 59.4374 64.646 56.9229 64.646 56.9229C64.1011 57.0421 63.6596 57.0048 63.3248 56.8601C62.8601 56.6593 62.5821 56.1873 62.2412 55.813L61.9173 55.4573C61.6187 55.1293 61.398 54.7382 61.2718 54.313C61.2299 54.1719 61.381 54.0516 61.5091 54.124L63.0733 55.0088C62.6559 53.8885 61.9537 52.8965 61.0359 52.1306L60.5406 51.7173L59.9593 51.1324C59.6329 50.4892 59.9787 49.939 60.6299 50.2489C61.9686 50.8862 63.9145 52.2932 65.0066 53.4717C66.5711 55.1599 70.082 56.4941 71.9708 56.4956C80.7286 56.5029 80.1206 52.8184 82.4482 45.0254Z" fill="#7C5600"/>
</svg>
