<svg width="114" height="76" viewBox="0 0 114 76" fill="none" xmlns="http://www.w3.org/2000/svg">
<rect width="114" height="76" rx="4" fill="white"/>
<g style="mix-blend-mode:multiply">
<circle cx="56.5264" cy="29.8882" r="22.2881" fill="#E2F4FE" fill-opacity="0.75"/>
</g>
<g style="mix-blend-mode:multiply" opacity="0.834287">
<path d="M71.9736 36.4243C71.9736 36.4243 81.3174 41.6505 77.8104 69.3085H82.0549C82.0549 69.3085 83.3156 41.9259 74.9348 37.1447L71.9736 36.4243Z" fill="#FFDD6A"/>
</g>
<g style="mix-blend-mode:multiply" opacity="0.85">
<path d="M73.4073 27.519C73.4073 27.519 68.1053 29.5743 71.9729 36.4243L73.4073 35.7064L72.2773 36.8413L74.3824 39.7401L75.9552 39.229L74.8905 40.7866L77.0198 43.1221L77.6973 42.6873L77.4554 43.5086C77.4554 43.5086 79.5842 45.489 80.4799 44.9576L73.4073 27.519Z" fill="#2B7285"/>
</g>
<g style="mix-blend-mode:multiply" opacity="0.85">
<path d="M73.4072 27.5189C73.4072 27.5189 78.5064 26.9811 80.8322 31.4033L78.9623 32.1725H80.4785L81.425 36.6909L79.3756 37.1919H81.5775V37.5161L77.8062 38.062L81.7086 38.4326C81.7086 38.4326 82.6058 43.5607 80.4785 44.9574L73.4072 27.5189Z" fill="#2B7285"/>
</g>
<g style="mix-blend-mode:multiply" opacity="0.85">
<path d="M73.0293 28.8085L83.3148 14.7703C83.3148 14.7703 84.3737 16.4081 83.5863 18.23H82.2507L83.355 18.7412L82.5357 21.3101L80.3807 21.4154L82.2507 22.7387L81.0752 24.9351L78.3129 24.3495L80.689 25.8521C80.6885 25.8526 77.2192 31.7585 73.0293 28.8085Z" fill="#2B7285"/>
</g>
<g style="mix-blend-mode:multiply" opacity="0.71">
<path d="M73.03 28.8084C73.03 28.8084 69.2239 26.284 72.8766 21.6183L73.9587 22.5382L73.2715 21.0487L78.4539 16.6516L80.0504 17.8073L79.6226 15.7752C79.6226 15.7752 81.1165 14.3291 83.315 14.7702L73.03 28.8084Z" fill="#2B7285"/>
</g>
<g style="mix-blend-mode:multiply" opacity="0.85">
<path d="M72.0856 28.8084C72.0856 28.8084 72.1654 22.7643 67.1809 21.1849L66.4371 23.0406V20.8414L63.2218 19.5364L62.5613 21.5037L61.559 19.319C61.559 19.319 55.9691 17.384 54.7051 19.319L72.0856 28.8084Z" fill="#2B7285"/>
</g>
<g style="mix-blend-mode:multiply" opacity="0.85">
<path d="M72.0354 28.2189C72.0354 28.2189 67.7129 24.5282 63.4993 31.1714L64.8117 32.0927L63.2752 31.6362L61.714 34.8592L62.9089 36.0009L61.0307 35.8013L59.9782 38.779L60.6823 39.1693L59.8436 39.3452C59.8436 39.3452 59.1037 42.1547 59.9961 42.691L72.0354 28.2189Z" fill="#2B7285"/>
</g>
<g style="mix-blend-mode:multiply" opacity="0.58">
<path d="M72.0354 28.219C72.0354 28.219 74.923 32.4484 72.1225 36.5875L70.5589 35.3067L71.2766 36.6407L67.7381 39.611L66.3264 38.0461L67.3683 39.9821L67.0823 40.1357L64.8151 37.0774L66.3361 40.6846C66.3361 40.6846 62.2357 43.9008 59.9961 42.6911L72.0354 28.219Z" fill="#2B7285"/>
</g>
<g style="mix-blend-mode:multiply" opacity="0.85">
<path d="M75.2701 29.6606L92.5247 32.0623C92.5247 32.0623 91.581 33.7683 89.6008 33.9384L88.9688 32.7634L89.0399 33.9766L86.3851 34.4723L85.273 32.6271L84.9904 34.8979L82.4957 34.9037L81.7049 32.1971L81.5031 34.9979C81.5031 34.9979 74.6506 34.7414 75.2701 29.6606Z" fill="#2B7285"/>
</g>
<g style="mix-blend-mode:multiply" opacity="0.85">
<path d="M75.2705 29.6607C75.2705 29.6607 75.6973 25.1187 81.5423 26.1227L81.2427 27.5098L82.2309 26.201L88.5637 28.6775L88.3004 30.6285L89.8906 29.2907C89.8906 29.2907 91.8738 29.9202 92.5247 32.062L75.2705 29.6607Z" fill="#2B7285"/>
</g>
<path d="M33.752 29.5395L36.7141 28.7131L41.2336 29.0758L36.5784 30.3731L33.752 29.5395Z" fill="#2B7285"/>
<path opacity="0.6" d="M33.752 29.5395L36.7141 28.7131L41.2336 29.0758L36.5784 30.3731L33.752 29.5395Z" fill="#00C4A3"/>
<path d="M26.5 31.6061L30.7335 30.4252L33.0411 31.0433L50.2499 26.246C50.2499 26.246 52.8602 25.7891 52.957 26.6564L30.7335 32.8154L26.5 31.6061Z" fill="#00C4A3"/>
<path d="M50.9028 28.2731L32.4242 33.4239L30.7335 32.8149L53.0208 26.603C53.0208 26.6035 53.5822 27.5266 50.9028 28.2731Z" fill="#2B7285"/>
<path d="M50.9028 28.2731L32.4242 33.4239L30.7335 32.8149L53.0208 26.603C53.0208 26.6035 53.5822 27.5266 50.9028 28.2731Z" fill="#00A585"/>
<path opacity="0.7" d="M35.2285 34.7139L38.1906 33.8895L47.3017 27.9243L40.8121 29.7339L35.2285 34.7139Z" fill="#00C4A3"/>
<path opacity="0.602353" d="M68.3693 28.2278C69.2205 27.9465 69.9794 27.8985 70.5894 27.9856L70.6507 27.9949C70.7076 28.0042 70.7513 28.0131 70.7811 28.0203L70.7948 28.0238L70.7457 28.2102L70.7009 28.2001C70.6618 28.1921 70.6154 28.1839 70.5621 28.1763C69.9802 28.0933 69.2509 28.1394 68.4298 28.4108C67.234 28.8059 66.0562 29.62 64.9509 30.9517L64.8817 31.036L64.8127 31.1215L64.6621 31.0012C64.7087 30.9428 64.7556 30.8853 64.8026 30.8287C65.9307 29.4695 67.1388 28.6344 68.3693 28.2278Z" fill="white"/>
<path opacity="0.602353" d="M57.0757 19.9165L68.136 25.9494L68.0437 26.1186L56.9834 20.0857L57.0757 19.9165Z" fill="white"/>
</svg>
