<svg width="114" height="76" viewBox="0 0 114 76" fill="none" xmlns="http://www.w3.org/2000/svg">
<rect width="114" height="76" rx="4" fill="white"/>
<g style="mix-blend-mode:multiply" opacity="0.6">
<ellipse cx="59.575" cy="32.5751" rx="24.825" ry="25.275" fill="#E2F4FE"/>
</g>
<path opacity="0.0973075" fill-rule="evenodd" clip-rule="evenodd" d="M30.8251 67.2335C30.8251 68.4429 44.0446 69.4234 60.3517 69.4234C76.6586 69.4234 89.8784 68.4429 89.8784 67.2335C89.8784 66.0237 76.6586 65.0435 60.3517 65.0435C44.0446 65.0435 30.8251 66.0237 30.8251 67.2335Z" fill="#2B7285"/>
<g style="mix-blend-mode:multiply" opacity="0.8">
<rect x="30.8251" y="48.3516" width="59.2042" height="4.98403" fill="#FFDF9F"/>
</g>
<g style="mix-blend-mode:multiply" opacity="0.9">
<rect x="32.0829" y="38.3203" width="56.5217" height="2.33423" fill="#FFDF9F"/>
</g>
<g style="mix-blend-mode:multiply" opacity="0.8">
<rect x="32.0829" y="33.6519" width="56.5217" height="2.33423" fill="#FFDF9F"/>
</g>
<g style="mix-blend-mode:multiply" opacity="0.8">
<rect x="32.0829" y="42.9888" width="56.5217" height="2.33423" fill="#FFDF9F"/>
</g>
<g style="mix-blend-mode:multiply">
<rect x="33.8458" y="32.5718" width="3.17166" height="34.2841" fill="#FFDF9F"/>
</g>
<g style="mix-blend-mode:multiply">
<rect x="83.837" y="31.9675" width="3.17167" height="34.8882" fill="#FFDF9F"/>
</g>
<path fill-rule="evenodd" clip-rule="evenodd" d="M74.0199 30.2307C70.8265 31.9205 71.5312 35.053 71.2439 37.9757C70.9565 40.8983 70.9441 41.8421 70.8884 42.5537L64.2321 45.5516L62.3037 43.4631L68.5846 40.4126C68.5846 40.4126 69.3596 35.5252 70.0968 33.2159C70.8341 30.9066 72.6282 30.4385 74.0199 30.2307Z" fill="#2B7285"/>
<path d="M77.5692 29.9288C77.5692 29.9288 75.3793 32.5718 74.02 30.2309C74.02 30.2309 72.5241 30.413 71.6019 32.254C70.6841 36.681 70.3952 42.1623 70.6891 47.2261C72.9588 47.0987 82.5411 46.797 82.5411 46.797C82.5411 42.6154 82.8802 35.2129 81.8272 30.8466C80.3012 30.3508 79.7592 30.2309 77.5692 29.9288Z" fill="#2B7285"/>
<path d="M72.7663 20.2116C74.7564 19.4999 76.6613 20.3728 76.8245 21.0985C76.4247 21.1727 73.9508 19.6779 71.6562 21.9152C70.9459 23.1595 71.0945 24.3442 71.0945 24.3442L70.783 23.204C70.6346 22.4043 70.7761 20.9233 72.7663 20.2116Z" fill="#D8D8D8"/>
<path d="M75.7773 31.9331C74.7898 31.9234 73.9958 31.2269 74.0041 30.3774L74.0154 29.2201C72.3689 29.204 71.0455 28.0428 71.0593 26.6269L71.0899 23.4979C71.1063 21.8131 72.7077 20.4623 74.6669 20.4815C76.5304 20.4997 78.0093 21.8426 77.9296 23.4436L77.5792 30.4654C77.5377 31.2936 76.7409 31.9425 75.7773 31.9331Z" fill="#8E6E25"/>
<path d="M73.3679 24.6619L72.0932 26.3006L73.3518 26.3129L73.3679 24.6619Z" fill="#7C5600"/>
<ellipse rx="0.377588" ry="0.353819" transform="matrix(-0.999952 -0.00977155 -0.00977148 0.999952 72.1102 24.5315)" fill="#303030"/>
<ellipse rx="0.377962" ry="0.35382" transform="matrix(-0.999952 -0.00977153 -0.0097715 0.999952 74.3753 24.5537)" fill="#303030"/>
<g style="mix-blend-mode:multiply" opacity="0.8">
<path d="M77.2965 24.0456L77.2746 26.2863C77.2746 26.2863 78.313 26.1947 78.2917 25.1757C78.2701 24.1569 77.2965 24.0456 77.2965 24.0456Z" fill="#7C5600"/>
</g>
<path d="M74.4761 27.1494L72.4624 27.1297C72.4624 27.1297 72.5339 27.9009 73.4623 27.8431C74.3912 27.7851 74.4761 27.1494 74.4761 27.1494Z" fill="#7C5600"/>
<path fill-rule="evenodd" clip-rule="evenodd" d="M82.1 30.8567C84.3405 32.499 84.6216 35.7321 84.3342 38.6548C84.0469 41.5774 83.2489 41.4896 81.7558 42.3234L75.0995 45.3213L73.1712 43.2328L80.4982 39.6633C80.4982 39.6633 80.0476 35.6614 80.2652 33.7699C80.4829 31.8784 81.064 30.6237 82.1 30.8567Z" fill="#2B7285"/>
<path fill-rule="evenodd" clip-rule="evenodd" d="M82.503 46.5301V46.5301C82.6535 48.5964 81.7645 50.6019 80.1323 51.878L78.5905 53.0834L75.5995 55.874L75.9712 64.7294L71.8553 64.1253L70.3518 56.4048C70.2581 55.9237 70.3063 55.4257 70.4904 54.9714L70.7613 54.3033C71.9318 51.416 73.6696 48.7928 75.8719 46.5891V46.5891L82.503 46.5301Z" fill="#00C5A3"/>
<path fill-rule="evenodd" clip-rule="evenodd" d="M70.8879 46.7401V46.7401C66.2559 49.8587 63.9132 55.4264 64.9223 60.9184L65.4154 63.6021L69.7412 64.0497L69.0554 56.9564C68.9265 55.6222 69.4743 54.3122 70.5145 53.467L72.4737 51.8752L76.1739 46.5891L70.8879 46.7401Z" fill="#00C5A3"/>
<path fill-rule="evenodd" clip-rule="evenodd" d="M65.0276 44.6218C65.0276 44.6218 60.2501 47.1919 59.9767 46.7753C59.7033 46.3587 62.7319 44.4295 62.7319 44.4295L61.2062 44.3024C61.2062 44.3024 62.3214 43.4792 63.319 43.7316L65.0276 44.6218Z" fill="#907633"/>
<g style="mix-blend-mode:multiply">
<path fill-rule="evenodd" clip-rule="evenodd" d="M69.0757 63.8351C68.8689 64.5455 69.4275 65.2509 69.4275 65.2509L69.6198 65.8573L68.8658 66.4602C68.3128 66.9024 67.5857 67.0894 66.8958 66.9313C66.5038 66.8411 66.2312 66.6721 66.4775 66.3555C67.0517 65.617 66.6581 63.5719 66.6581 63.5719C66.6581 63.5719 69.2825 63.1248 69.0757 63.8351Z" fill="#977833"/>
</g>
<g style="mix-blend-mode:multiply">
<path fill-rule="evenodd" clip-rule="evenodd" d="M75.4432 64.3693C75.2159 64.995 75.7483 65.5925 75.7483 65.5925L75.9202 66.1151L75.1531 66.6641C74.5906 67.0668 73.8632 67.2524 73.1834 67.1361C72.7971 67.0697 72.5319 66.9308 72.7862 66.6473C73.379 65.9856 73.0522 64.2152 73.0522 64.2152C73.0522 64.2152 75.6706 63.7437 75.4432 64.3693Z" fill="#977833"/>
</g>
<g style="mix-blend-mode:multiply">
<path fill-rule="evenodd" clip-rule="evenodd" d="M69.565 65.7931C69.8531 65.8378 69.8206 67.4742 69.8206 67.4742C69.8206 67.4742 66.8123 67.9951 66.1233 68.036C64.4121 68.1374 63.4473 68.1267 63.2558 67.7272C63.0643 67.3274 65.3658 66.4593 65.4742 66.3374C65.8032 66.0089 66.1507 65.7 66.5147 65.4122C66.8453 65.1631 66.9578 66.267 66.9578 66.267C67.4008 67.1219 69.2768 65.7483 69.565 65.7931" fill="#2B7285"/>
</g>
<g style="mix-blend-mode:multiply">
<path fill-rule="evenodd" clip-rule="evenodd" d="M75.8735 65.8769C76.169 65.8887 76.31 67.5182 76.31 67.5182C76.31 67.5182 73.3304 68.3764 72.6395 68.495C70.9238 68.7896 69.9493 68.8882 69.7136 68.5129C69.4778 68.1375 71.7077 67.0143 71.804 66.8811C72.1011 66.5174 72.4187 66.1711 72.7554 65.844C73.0626 65.5589 73.2934 66.6432 73.2934 66.6432C73.8313 67.4421 75.578 65.8652 75.8735 65.8769" fill="#2B7285"/>
</g>
<path d="M78.4981 24.4272C78.4981 24.4272 78.0053 24.1067 77.5516 24.5715C76.4925 25.2207 76.36 23.7764 76.7541 23.3023C77.3171 22.6251 77.2599 22.005 76.5141 20.8966C76.5141 20.8966 79.0401 21.3628 78.4981 24.4272Z" fill="#D8D8D8"/>
<g style="mix-blend-mode:multiply" opacity="0.8">
<path d="M53.3464 64.7991C53.1704 55.6968 52.5554 54.2922 52.5554 54.2922L56.4555 54.064L55.9575 57.3704L55.119 63.1732L55.0737 65.172L53.3464 64.7991Z" fill="#7C5600"/>
</g>
<g style="mix-blend-mode:multiply" opacity="0.8">
<path d="M48.4858 55.2802C48.4858 55.2802 48.3155 55.4496 48.8345 65.2785L50.2915 65.6518L52.3734 54.7488L48.4858 55.2802Z" fill="#7C5600"/>
</g>
<path d="M53.1341 48.9778C55.3241 50.1105 56.8141 50.7728 57.3427 54.02L54.5083 54.4368L48.0058 46.7672L49.6731 46.3232C51.4238 47.9906 51.1219 47.937 53.1341 48.9778Z" fill="#2B7285"/>
<path fill-rule="evenodd" clip-rule="evenodd" d="M57.3389 54.066C56.7674 54.121 49.7064 55.3453 48.4227 56.327C45.3953 54.0391 44.1539 53.439 42.5781 52.832C41.0024 52.2251 39.1477 51.8726 38.1572 49.4645C37.5018 47.4903 38.002 45.9063 38.002 45.9063C38.002 45.9063 45.9217 46.1564 49.5898 46.3232" fill="#2B7285"/>
<path opacity="0.7" d="M46.5667 31.0867C46.5088 28.9431 46.5695 24.7294 47.2631 22.7928C47.3608 22.5201 47.2539 22.0771 47.0971 21.8335C46.7451 21.2867 47.428 20.871 48.0333 21.1086L48.5308 21.3039C48.7104 21.3744 48.8699 21.4911 48.9733 21.6541C49.5159 22.5095 49.9701 23.9336 50.0438 25.0966C50.1165 26.2429 50.1834 27.2805 50.2401 28.1519C50.341 29.7012 49.199 31.0867 47.6464 31.0867C46.4055 31.0867 46.8523 30.7765 46.5667 31.0867C46.5789 31.5404 46.5965 31.9014 46.6145 32.1284C46.7247 33.5167 46.2908 31.3863 46.5667 31.0867Z" fill="#C4C4C4"/>
<g style="mix-blend-mode:multiply">
<path fill-rule="evenodd" clip-rule="evenodd" d="M48.4844 64.3325C48.4051 64.1547 47.9079 66.2643 47.8398 66.373C47.7715 66.4815 50.2856 67.1449 50.5322 67.2251C51.1567 67.4278 52.3101 67.7687 53.1653 67.4206C54.0206 67.0723 51.5171 65.9906 51.5171 65.9906L50.8975 64.9498C50.7426 64.6898 50.0423 65.2981 50.0423 65.2981C49.6257 65.7586 48.5638 64.5103 48.4844 64.3325" fill="#FE635A"/>
</g>
<g style="mix-blend-mode:multiply">
<path fill-rule="evenodd" clip-rule="evenodd" d="M52.8342 64.2127C52.6019 64.2697 52.5088 66.163 52.5088 66.163C52.5088 66.163 54.8608 66.7103 55.4051 66.7451C56.7573 66.8309 57.5245 66.8008 57.7058 66.3347C57.8871 65.8686 55.3531 64.9654 55.2759 64.8263C55.0385 64.4521 55.0474 64.2455 54.7791 63.9193C54.5344 63.637 54.7522 64.6779 54.7522 64.6779C54.0284 65.4166 53.0664 64.1556 52.8342 64.2127Z" fill="#FE635A"/>
</g>
<path opacity="0.9" fill-rule="evenodd" clip-rule="evenodd" d="M41.1699 30.6778L40.1125 34.7285L37.9187 46.1838L49.611 46.3505L48.8395 31.5949L41.1699 30.6778Z" fill="#FFDF9F"/>
<g style="mix-blend-mode:multiply" opacity="0.7">
<path fill-rule="evenodd" clip-rule="evenodd" d="M46.8387 31.3447L47.3389 47.4342L49.6731 46.9341L48.8395 31.5948L46.8387 31.3447Z" fill="#F7544B"/>
</g>
<path fill-rule="evenodd" clip-rule="evenodd" d="M46.8282 31.6886L46.7382 30.0983C48.083 30.1083 49.1816 29.0125 49.1916 27.6505L49.2139 24.6415C49.2259 23.0209 47.9382 21.6975 46.3377 21.6857C44.8156 21.6744 43.5873 22.943 43.6284 24.4836L43.9066 31.7178C43.928 32.5147 44.5688 33.1513 45.3563 33.1571C46.163 33.1631 46.8222 32.5056 46.8282 31.6886Z" fill="#8E6E25"/>
<path fill-rule="evenodd" clip-rule="evenodd" d="M46.6397 25.5394C46.6382 25.7479 46.4679 25.9157 46.2593 25.9142C46.0507 25.9126 45.8831 25.7423 45.8846 25.5338C45.8861 25.3253 46.0563 25.1575 46.2649 25.159C46.4735 25.1606 46.6413 25.3309 46.6397 25.5394" fill="#003147"/>
<path fill-rule="evenodd" clip-rule="evenodd" d="M48.9052 25.5562C48.9036 25.7648 48.7334 25.9326 48.5249 25.931C48.3162 25.9295 48.1485 25.7592 48.15 25.5506C48.1516 25.3421 48.3218 25.1743 48.5304 25.1759C48.739 25.1774 48.9067 25.3477 48.9052 25.5562" fill="#003147"/>
<g style="mix-blend-mode:multiply" opacity="0.59575">
<path fill-rule="evenodd" clip-rule="evenodd" d="M47.5463 25.4707L48.4391 27.2897L47.5329 27.283L47.5463 25.4707Z" fill="#7C5600"/>
</g>
<g style="mix-blend-mode:multiply" opacity="0.59575">
<path fill-rule="evenodd" clip-rule="evenodd" d="M46.4714 27.8794L47.8306 27.8895C47.8306 27.8895 47.7714 28.7112 47.1454 28.6352C46.5196 28.5591 46.4714 27.8794 46.4714 27.8794" fill="#7C5600"/>
</g>
<g style="mix-blend-mode:multiply" opacity="0.7">
<path fill-rule="evenodd" clip-rule="evenodd" d="M41.1699 30.6778L39.586 35.7631L37.7519 47.2675L42.6705 47.8511L43.0873 31.0946L41.1699 30.6778Z" fill="#F7544B"/>
</g>
<path fill-rule="evenodd" clip-rule="evenodd" d="M53.3033 43.7237C53.3033 43.7237 57.7492 43.0903 57.6901 42.582C57.6311 42.0738 54.6459 42.2244 54.6459 42.2244L55.5386 41.2284C55.5386 41.2284 53.7288 41.4874 53.2393 42.2802L53.3033 43.7237Z" fill="#9A7216"/>
<path fill-rule="evenodd" clip-rule="evenodd" d="M48.7274 31.6046C48.7551 31.5172 49.781 31.8584 50.2143 33.9078C50.8423 36.8781 51.0792 41.5078 51.5791 41.7783L53.3597 41.9501L53.9187 43.9744C50.4155 43.9744 49.8114 44.3712 49.5093 43.5405C49.0562 41.5016 49.1756 40.515 48.7887 34.8683L48.7274 31.6046Z" fill="#FE635A"/>
<g style="mix-blend-mode:multiply" opacity="0.3">
<path fill-rule="evenodd" clip-rule="evenodd" d="M48.3014 31.6105C48.3291 31.5231 49.355 31.8642 49.7883 33.9137C50.4163 36.8839 50.6532 41.5137 51.153 41.7841L52.9337 41.9559L53.4927 43.9802C49.9895 43.9802 49.3853 44.3771 49.0833 43.5464C48.6302 41.5075 48.7496 40.5209 48.3627 34.8742L48.3014 31.6105Z" fill="#F6544B"/>
</g>
<path fill-rule="evenodd" clip-rule="evenodd" d="M37.9693 32.7269L33.8914 39.3518C33.4794 40.1339 34.1329 41.3662 34.9487 41.7133L40.045 45.6732L41.6633 43.1597L37.5248 40.1429C37.2231 40.0063 37.0908 39.651 37.2301 39.3518L38.951 37.4089C38.951 37.4089 40.3103 35.4455 40.9899 34.2373C41.6695 33.029 42.1226 30.8505 42.1226 30.8505C42.1226 30.8505 40.5368 30.537 39.6306 30.9901C38.7244 31.4432 38.2794 32.1382 37.9693 32.7269Z" fill="#FE635A"/>
<path fill-rule="evenodd" clip-rule="evenodd" d="M41.0851 43.7138C41.0851 43.7138 44.3137 42.9769 44.5331 46.0222C44.5921 46.4382 42.2955 44.7939 42.2955 44.7939L43.1251 45.6811C43.1251 45.6811 41.1942 45.4466 40.4669 44.8352L41.0851 43.7138Z" fill="#8E6E25"/>
<path opacity="0.9" d="M41.9051 22.7518C42.943 20.7712 44.6775 19.918 46.4871 20.5388L47.265 21.9807C47.2911 21.9998 47.309 22.0323 47.3178 22.0785L47.265 21.9807C47.0407 21.8163 46.2167 22.6506 45.5048 24.268C45.3518 24.6156 43.8926 24.2525 43.8536 25.1967C43.7695 27.2338 43.8083 29.1151 43.8536 30.567L41.3366 30.4837C41.3366 28.8997 40.8672 24.7324 41.9051 22.7518Z" fill="#D2D1D1"/>
<path d="M47.2154 21.9443L46.4882 20.5452C50.2859 19.9002 50.2059 25.6805 50.1129 28.696L49.1239 28.3459C49.9254 23.8275 48.0631 22.0907 47.2154 21.9443Z" fill="#D2D1D1"/>
<g style="mix-blend-mode:multiply" opacity="0.8">
<path fill-rule="evenodd" clip-rule="evenodd" d="M43.9043 25.8036L43.8922 27.4414C43.8922 27.4414 42.9533 27.36 42.9872 26.6158C43.0212 25.8715 43.9043 25.8036 43.9043 25.8036" fill="#7C5600"/>
</g>
<path opacity="0.6" fill-rule="evenodd" clip-rule="evenodd" d="M41.9893 46.1443C41.8734 46.4016 41.842 46.7353 41.8555 46.9639C41.8695 47.2024 41.6876 47.4072 41.449 47.4213C41.2104 47.4353 41.0057 47.2534 40.9916 47.0148C40.9729 46.6979 41.0091 46.2133 41.2003 45.7888C41.4008 45.3439 41.8019 44.9202 42.4852 44.9202C43.2393 44.9202 43.7125 45.3016 43.9726 45.7658C44.216 46.2003 44.2691 46.6926 44.2691 46.9893V66.6483C44.2691 66.8872 44.0754 67.081 43.8364 67.081C43.5974 67.081 43.4037 66.8872 43.4037 66.6483V46.9893C43.4037 46.7692 43.3603 46.4434 43.2176 46.1888C43.0916 45.964 42.8892 45.7856 42.4852 45.7856C42.2419 45.7856 42.0961 45.9073 41.9893 46.1443Z" fill="#00C5A3"/>
<path opacity="0.9" d="M54.3857 41.0293H56.9533L56.6512 44.8051H54.6878L54.3857 41.0293Z" fill="#00C5A3"/>
<g style="mix-blend-mode:multiply">
<path d="M54.0914 41.2429H57.263L57.0409 40.4878H54.3135L54.0914 41.2429Z" fill="#00C5A3"/>
</g>
<g style="mix-blend-mode:multiply" opacity="0.3">
<path fill-rule="evenodd" clip-rule="evenodd" d="M81.6419 31.0066C80.8891 31.189 80.4484 32.3299 80.2652 33.922C80.0476 35.8135 80.4982 39.8154 80.4982 39.8154L73.1712 43.3222L75.0995 45.4734L81.7558 42.4755C81.9788 42.351 82.1862 42.247 82.3787 42.1506C82.4543 42.1127 82.5276 42.0759 82.5987 42.0396C82.6221 38.2733 82.5408 33.9914 81.8361 31.0694C81.7696 31.0477 81.7049 31.0268 81.6419 31.0066Z" fill="#2B7285"/>
</g>
<g style="mix-blend-mode:multiply" opacity="0.3">
<path fill-rule="evenodd" clip-rule="evenodd" d="M74.0495 30.1504C70.8561 31.8402 71.5608 34.9727 71.2735 37.8954C70.9861 40.818 70.9737 41.7618 70.918 42.4734L64.2617 45.4713L62.3333 43.3828L68.6142 40.3323C68.6142 40.3323 69.3892 35.4449 70.1264 33.1356C70.8637 30.8263 72.6578 30.3582 74.0495 30.1504Z" fill="#2B7285"/>
</g>
<g style="mix-blend-mode:multiply">
<path fill-rule="evenodd" clip-rule="evenodd" d="M71.5981 52.5676C72.7147 50.3265 74.1873 48.2764 75.9617 46.4989L76.2725 46.49L72.5723 51.7761L71.5981 52.5676Z" fill="#00C5A3"/>
</g>
<g style="mix-blend-mode:multiply" opacity="0.458612">
<path fill-rule="evenodd" clip-rule="evenodd" d="M87.1676 67.9312C87.1676 67.9312 90.0002 66.8225 90.0434 63.6277C90.0867 60.4329 92.6873 57.7 92.6873 57.7C92.6873 57.7 87.9116 57.7424 86.7883 61.6017C85.665 65.4611 87.1676 67.9312 87.1676 67.9312" fill="#00C5A3"/>
</g>
<g style="mix-blend-mode:multiply" opacity="0.458612">
<path fill-rule="evenodd" clip-rule="evenodd" d="M83.6499 58.9514C83.6499 58.9514 85.982 61.2385 85.2731 63.5462C84.5643 65.8539 87.1676 67.9311 87.1676 67.9311C87.1676 67.9311 89.6521 58.6275 83.6499 58.9514" fill="#00C5A3"/>
</g>
<g style="mix-blend-mode:multiply" opacity="0.458612">
<path fill-rule="evenodd" clip-rule="evenodd" d="M93.2498 60.5237C93.2498 60.5237 90.3191 61.9735 90.2717 64.3864C90.2244 66.7994 87.1016 67.9655 87.1016 67.9655C87.1016 67.9655 87.6471 58.3533 93.2498 60.5237" fill="#00C5A3"/>
</g>
<path opacity="0.094215" fill-rule="evenodd" clip-rule="evenodd" d="M84.2609 67.8036C84.2609 68.0225 85.5327 68.1999 87.1017 68.1999C88.6706 68.1999 89.9425 68.0225 89.9425 67.8036C89.9425 67.5847 88.6706 67.4072 87.1017 67.4072C85.5327 67.4072 84.2609 67.5847 84.2609 67.8036" fill="#2B7285"/>
<g style="mix-blend-mode:multiply" opacity="0.427037">
<path fill-rule="evenodd" clip-rule="evenodd" d="M34.2812 67.5999C34.2812 67.5999 36.6542 65.3808 35.4677 62.1474C34.2812 58.914 35.7999 55.1499 35.7999 55.1499C35.7999 55.1499 31.0965 57.0519 31.4711 61.3749C31.8458 65.6979 34.2812 67.5999 34.2812 67.5999" fill="#00C5A3"/>
</g>
<g style="mix-blend-mode:multiply" opacity="0.427037">
<path fill-rule="evenodd" clip-rule="evenodd" d="M27.25 59.938C27.25 59.938 30.4892 61.3311 30.6797 63.9273C30.8703 66.5235 34.3 67.6 34.3 67.6C34.3 67.6 33.1568 57.2784 27.25 59.938" fill="#00C5A3"/>
</g>
<g style="mix-blend-mode:multiply" opacity="0.427037">
<path fill-rule="evenodd" clip-rule="evenodd" d="M37.4501 57.7C37.4501 57.7 35.08 60.3042 35.9734 62.7555C36.8669 65.2069 34.1937 67.6 34.1937 67.6C34.1937 67.6 30.9921 57.696 37.4501 57.7" fill="#00C5A3"/>
</g>
<path opacity="0.094215" fill-rule="evenodd" clip-rule="evenodd" d="M31 67.5483C31 67.7684 32.2742 67.9467 33.8461 67.9467C35.418 67.9467 36.6922 67.7684 36.6922 67.5483C36.6922 67.3283 35.418 67.1499 33.8461 67.1499C32.2742 67.1499 31 67.3283 31 67.5483" fill="#2B7285"/>
<path fill-rule="evenodd" clip-rule="evenodd" d="M74.9978 45.1831C74.9978 45.1831 70.6355 47.5279 70.3997 47.0524C70.164 46.5769 71.9003 45.1831 71.9003 45.1831L71.1618 44.7724C71.1618 44.7724 73.2334 43.6128 74.2182 43.9115L74.9978 45.1831Z" fill="#907633"/>
</svg>
