<svg width="112" height="77" viewBox="0 0 112 77" fill="none" xmlns="http://www.w3.org/2000/svg">
<rect y="0.482056" width="112" height="76" rx="4" fill="white"/>
<g style="mix-blend-mode:multiply" opacity="0.55">
<ellipse cx="54.9067" cy="31.1" rx="24.375" ry="24.6" fill="#FFDB94"/>
</g>
<g style="mix-blend-mode:multiply" opacity="0.7">
<path d="M54.9817 28.4L73.558 66.2H36.4055L54.9817 28.4Z" fill="#00C5A3"/>
</g>
<path opacity="0.7" d="M52.1319 36.2L51.7569 34.925L54.9819 28.4L58.6569 35.825L56.8569 34.025L56.1069 35.525L55.0569 34.025L54.2319 36.2L53.4069 34.475L52.1319 36.2Z" fill="#FFFBF0"/>
<g style="mix-blend-mode:multiply">
<path d="M65.2002 19.0528L55.0913 22.8228L55.0592 15.3701L65.2002 19.0528Z" fill="#FE635A"/>
</g>
<g style="mix-blend-mode:multiply" opacity="0.5">
<path d="M37.4213 40.25L51.6605 66.2375H22.4321L37.4213 40.25Z" fill="#8DCEC3"/>
</g>
<g style="mix-blend-mode:multiply" opacity="0.5">
<path d="M74.501 49.25L85.7321 66.2H63.6821L74.501 49.25Z" fill="#8DCEC3"/>
</g>
<g style="mix-blend-mode:multiply" opacity="0.7">
<rect x="54.6821" y="15.35" width="0.600002" height="13.65" fill="#2B7285"/>
</g>
<path opacity="0.4" d="M67.2069 66.275L50.0319 59.75L63.5319 52.175L48.9819 49.775L60.0819 44.45L52.0569 40.025L57.7569 37.025L53.9319 33.35L54.9819 29.225" stroke="#E2F4FE" stroke-width="3" stroke-linecap="round" stroke-linejoin="round"/>
<circle opacity="0.4" cx="50.1071" cy="59.825" r="0.674999" fill="#E2F4FE"/>
<ellipse opacity="0.4" cx="63.4567" cy="52.175" rx="0.674999" ry="0.675001" fill="#E2F4FE"/>
<ellipse opacity="0.4" cx="48.9069" cy="49.775" rx="0.674999" ry="0.675001" fill="#E2F4FE"/>
<circle opacity="0.4" cx="60.1569" cy="44.375" r="0.675001" fill="#E2F4FE"/>
<circle opacity="0.4" cx="52.0569" cy="39.875" r="0.675001" fill="#E2F4FE"/>
<ellipse opacity="0.4" cx="57.9069" cy="37.025" rx="0.675001" ry="0.674999" fill="#E2F4FE"/>
<path opacity="0.8" d="M34.5069 50.15L33.2319 47.525L37.4319 40.25L42.3069 49.175L39.7569 47.675L38.4819 50.45L36.3069 47.675L34.5069 50.15Z" fill="#FFFBF0"/>
<path opacity="0.8" d="M71.4067 55.925L71.0317 54.575L74.4817 49.25L78.6817 55.55L75.9067 54.125L74.4817 56.225L73.4317 53.975L71.4067 55.925Z" fill="#FFFBF0"/>
</svg>
