<svg width="112" height="77" viewBox="0 0 112 77" fill="none" xmlns="http://www.w3.org/2000/svg">
<rect y="0.482056" width="112" height="76" rx="4" fill="white"/>
<path d="M67 48.475C68.275 46 75.5686 39.1 75.5686 39.1H79.4699C79.4699 39.1 81.1126 42.7853 79.4699 44.8327C77.8273 46.8801 72.325 48.325 70.6 50.35C70.6 54.175 70.675 56.2 71.5 59.65L68.3174 58.7286C66.925 54.475 66.85 51.625 67 48.475Z" fill="#2B7285"/>
<path d="M73.8704 53.1786C71.9241 49.975 71.9241 38.7349 71.9241 38.7349L79.2996 38.3251C79.2996 38.3251 76.4313 47.7494 77.3533 52.7688C78.2752 57.7883 78.5825 57.6858 79.2996 62.1931L76.5338 61.681C75.407 58.7102 75.8168 56.3822 73.8704 53.1786Z" fill="#2B7285"/>
<g style="mix-blend-mode:multiply" opacity="0.75">
<ellipse cx="31.9746" cy="57.1" rx="10.875" ry="10.95" fill="#00C5A3"/>
</g>
<path d="M25.2201 60.3536L26.6205 60.1223C27.7672 59.9329 28.4895 59.0801 28.2993 57.9285C28.1271 56.8863 27.0768 56.2461 25.7715 56.4617L24.6089 56.6538C24.5402 56.6651 24.497 56.699 24.5047 56.7459L24.5073 56.7616C24.5262 56.8762 24.7314 56.8691 24.7649 57.0723L25.2332 59.9071C25.2668 60.1104 25.0703 60.1696 25.0892 60.2842L25.0918 60.2999C25.0996 60.3468 25.1514 60.365 25.2201 60.3536ZM26.2067 59.9176C26.0112 59.9499 25.8672 59.8345 25.8285 59.6L25.3981 56.9945C25.3748 56.8538 25.4455 56.7886 25.5459 56.772L25.6939 56.7476C26.6503 56.5896 27.5114 57.2342 27.6827 58.2712C27.8231 59.1206 27.327 59.7326 26.5396 59.8626L26.2067 59.9176Z" fill="#076377"/>
<path d="M29.4006 59.663L31.8367 59.2606C31.9318 59.2449 31.9611 59.1919 31.9676 59.0998L31.9936 58.5013C31.9938 58.437 31.9526 58.3849 31.8945 58.3945L31.8575 58.4006C31.6303 58.4382 31.6193 59.0288 31.3075 59.0803L30.3088 59.2453C30.1397 59.2733 30.0477 59.1439 30.0253 59.0084L29.8292 57.7882L30.643 57.6537C30.8702 57.6162 30.9456 57.941 31.0671 57.9209L31.0988 57.9157C31.1464 57.9078 31.1712 57.8609 31.1617 57.8036L31.0395 57.0636C31.0292 57.0011 30.9914 56.9698 30.9439 56.9777L30.9122 56.9829C30.7906 57.003 30.8263 57.3504 30.5991 57.388L29.7853 57.5224L29.5847 56.3082C29.5606 56.1623 29.6251 56.0928 29.7308 56.0753L30.6186 55.9287C30.9251 55.878 31.1643 56.406 31.3757 56.371L31.4021 56.3667C31.4655 56.3562 31.4956 56.3084 31.4668 56.2329L31.247 55.691C31.2166 55.605 31.1727 55.5695 31.0776 55.5852L28.7788 55.9649C28.7154 55.9754 28.6775 56.0084 28.6852 56.0553L28.6878 56.071C28.7059 56.1804 28.911 56.1733 28.9463 56.3869L29.4128 59.2113C29.4481 59.425 29.2508 59.479 29.2697 59.5936L29.2723 59.6093C29.28 59.6562 29.3319 59.6744 29.4006 59.663Z" fill="#076377"/>
<path d="M34.6332 56.7537C35.0352 56.5909 35.2512 56.2554 35.1858 55.8594C35.098 55.3279 34.5411 55.013 33.6533 55.1597L32.3692 55.3718C32.3005 55.3832 32.2625 55.4162 32.2703 55.4631L32.2729 55.4787C32.2918 55.5934 32.4916 55.5871 32.5252 55.7904L32.9935 58.6252C33.0271 58.8284 32.8358 58.8868 32.8539 58.9962L32.8574 59.017C32.8651 59.0639 32.9117 59.083 32.9804 59.0717L34.4759 58.8246C35.3901 58.6736 35.9359 58.1659 35.8318 57.5353C35.7491 57.0351 35.3137 56.7323 34.6332 56.7537ZM33.1715 55.7264C33.1457 55.5701 33.2216 55.504 33.3273 55.4865L33.6761 55.4289C34.1834 55.3451 34.5522 55.5733 34.6314 56.0527C34.6874 56.3914 34.4689 56.6791 34.0673 56.7454L33.5917 56.824C33.4543 56.8467 33.3445 56.7738 33.3221 56.6384L33.1715 55.7264ZM34.3791 58.5676L33.9458 58.6392C33.7767 58.6671 33.6389 58.556 33.6088 58.3736L33.4022 57.123L33.9148 57.0383C34.6546 56.9161 35.118 57.2892 35.1929 57.7426C35.2652 58.1803 35.008 58.4637 34.3791 58.5676Z" fill="#076377"/>
<path d="M37.5959 58.3092L38.4203 58.173C38.4942 58.1608 38.5322 58.1278 38.5245 58.0809L38.5219 58.0652C38.5029 57.9506 38.2873 57.9594 38.2537 57.7562L37.7604 54.7703L38.3364 54.6751C38.6324 54.6262 38.7975 55.1985 38.9824 55.168L39.0458 55.1575C39.1092 55.147 39.1446 55.0983 39.1167 55.028L38.898 54.4271C38.8675 54.3411 38.8184 54.3064 38.7233 54.3221L36.0705 54.7604C35.9754 54.7761 35.94 54.8248 35.944 54.9151L35.9505 55.5457C35.9528 55.6256 35.9967 55.6612 36.0601 55.6507L36.1235 55.6402C36.3085 55.6097 36.2544 55.0191 36.5503 54.9702L37.1263 54.875L37.6196 57.861C37.6531 58.0642 37.4513 58.1243 37.4703 58.2389L37.4729 58.2546C37.4806 58.3015 37.5272 58.3205 37.5959 58.3092Z" fill="#076377"/>
<path fill-rule="evenodd" clip-rule="evenodd" d="M32.117 59.1083L32.1168 59.1104C32.1129 59.1661 32.101 59.2373 32.0551 59.2987C32.005 59.3656 31.9334 59.3966 31.8608 59.4086L29.4246 59.811C29.3746 59.8193 29.3144 59.82 29.2576 59.7973C29.1941 59.772 29.1376 59.7168 29.1239 59.6337L29.1213 59.6181C29.1084 59.5401 29.1354 59.4779 29.1614 59.4362C29.1775 59.4104 29.2023 59.3799 29.218 59.3607C29.2225 59.3552 29.2262 59.3506 29.2288 59.3473C29.2597 59.3077 29.2722 59.283 29.2644 59.2358L28.7979 56.4114C28.79 56.3635 28.7691 56.3428 28.727 56.3147C28.7234 56.3123 28.7181 56.3089 28.7116 56.3048C28.6907 56.2916 28.6583 56.271 28.6361 56.2531C28.5996 56.2236 28.5523 56.1739 28.5394 56.0954L28.5368 56.0798C28.5244 56.0045 28.5512 55.9351 28.6023 55.8871C28.6478 55.8444 28.7049 55.825 28.754 55.8169L31.0527 55.4372C31.1204 55.426 31.1987 55.4284 31.269 55.4749C31.3345 55.5184 31.3673 55.5837 31.3868 55.6375L31.606 56.178L31.6066 56.1795C31.63 56.241 31.6402 56.3197 31.6016 56.3936C31.5618 56.4698 31.4896 56.5042 31.4261 56.5147L31.3997 56.519C31.2813 56.5386 31.1822 56.4767 31.1195 56.4284C31.065 56.3866 31.0087 56.331 30.9587 56.2818C30.9481 56.2713 30.9377 56.2611 30.9277 56.2514C30.8655 56.1908 30.811 56.1416 30.7582 56.1095C30.707 56.0784 30.6713 56.0719 30.6426 56.0767L29.7548 56.2233C29.7413 56.2256 29.7345 56.2285 29.7317 56.2301C29.73 56.2351 29.7268 56.2505 29.7323 56.2838L29.9084 57.35L30.5742 57.24C30.5963 57.2364 30.6188 57.2227 30.6541 57.127C30.6573 57.1184 30.661 57.1078 30.6651 57.0961C30.6771 57.0617 30.6925 57.0175 30.7083 56.9844C30.7289 56.9417 30.7788 56.8529 30.8873 56.835L30.919 56.8297C30.9838 56.819 31.0513 56.8351 31.1042 56.8816C31.1541 56.9253 31.178 56.9844 31.1871 57.0392L31.3093 57.7791C31.3184 57.8339 31.3131 57.8955 31.2826 57.9507C31.2505 58.0088 31.1941 58.0519 31.1229 58.0637L31.0912 58.0689C30.9858 58.0863 30.911 58.0235 30.8764 57.9897C30.8506 57.9646 30.8215 57.9288 30.7993 57.9015C30.7919 57.8923 30.7852 57.8841 30.7796 57.8775C30.718 57.8045 30.6924 57.7976 30.667 57.8017L30.0006 57.9118L30.1729 58.984C30.1729 58.9841 30.173 58.9842 30.173 58.9843C30.1805 59.0297 30.1984 59.0632 30.2164 59.0808C30.2246 59.0888 30.2326 59.0935 30.2409 59.0961C30.2492 59.0987 30.2627 59.1009 30.2839 59.0974L31.2827 58.9324C31.3104 58.9278 31.3392 58.9114 31.3736 58.8665C31.4098 58.8191 31.4413 58.7545 31.4766 58.6747C31.4815 58.6636 31.4865 58.6521 31.4917 58.6403C31.5204 58.5744 31.5535 58.4984 31.5914 58.4368C31.6353 58.3656 31.7092 58.273 31.8327 58.2526L31.8697 58.2465C31.9539 58.2326 32.0291 58.2656 32.078 58.3209C32.1237 58.3728 32.1434 58.4393 32.1432 58.5018L32.1432 58.5048L32.117 59.1083ZM30.0249 59.0084L29.8288 57.7882L30.6426 57.6537C30.7738 57.6321 30.8544 57.7313 30.9225 57.8151C30.9723 57.8764 31.0154 57.9294 31.0667 57.9209L31.0984 57.9157C31.146 57.9078 31.1708 57.8609 31.1613 57.8036L31.0391 57.0636C31.0288 57.0011 30.991 56.9699 30.9435 56.9777L30.9118 56.9829C30.8604 56.9914 30.8371 57.0583 30.8102 57.1356C30.7735 57.2412 30.7299 57.3663 30.5987 57.388L29.7849 57.5224L29.5843 56.3082C29.5602 56.1623 29.6247 56.0928 29.7304 56.0753L30.6182 55.9287C30.7856 55.901 30.933 56.046 31.0667 56.1776C31.1777 56.2869 31.2794 56.3869 31.3753 56.3711L31.4017 56.3667C31.4651 56.3562 31.4952 56.3084 31.4664 56.2329L31.2466 55.691C31.2162 55.6051 31.1723 55.5695 31.0772 55.5852L28.7784 55.9649C28.715 55.9754 28.677 56.0084 28.6848 56.0553L28.6874 56.071C28.6949 56.1166 28.735 56.142 28.7817 56.1716C28.847 56.2129 28.9253 56.2624 28.9459 56.3869L29.4124 59.2113C29.4328 59.3347 29.3757 59.4048 29.3274 59.4641C29.292 59.5075 29.2613 59.5452 29.2693 59.5937L29.2719 59.6093C29.2796 59.6562 29.3315 59.6744 29.4002 59.663L31.8363 59.2606C31.9314 59.2449 31.9607 59.1919 31.9672 59.0998L31.9932 58.5013C31.9934 58.437 31.9522 58.3849 31.8941 58.3945L31.8571 58.4006C31.7525 58.4179 31.6937 58.5525 31.6303 58.6978C31.556 58.8679 31.4753 59.0526 31.3071 59.0804L30.3084 59.2454C30.1393 59.2733 30.0473 59.1439 30.0249 59.0084ZM34.9265 56.766C35.4378 56.8292 35.7613 57.1113 35.8314 57.5353C35.9355 58.1659 35.3897 58.6736 34.4755 58.8246L32.98 59.0717C32.9113 59.083 32.8647 59.0639 32.857 59.017L32.8535 58.9962C32.8459 58.9499 32.8757 58.9127 32.9101 58.8699C32.957 58.8114 33.0125 58.7424 32.9931 58.6252L32.5248 55.7904C32.5056 55.6743 32.4322 55.6266 32.3693 55.5856C32.322 55.5548 32.2806 55.5279 32.2724 55.4787L32.2699 55.4631C32.2621 55.4162 32.3001 55.3832 32.3688 55.3718L33.6529 55.1597C34.5407 55.013 35.0976 55.3279 35.1854 55.8594C35.2353 56.1619 35.1212 56.429 34.8854 56.6108C34.8124 56.6671 34.7278 56.7152 34.6328 56.7537C34.7365 56.7504 34.8346 56.7547 34.9265 56.766ZM35.0794 56.6392C35.253 56.6749 35.4077 56.7366 35.5392 56.8239C35.7789 56.983 35.9314 57.2206 35.9794 57.5109C36.0405 57.8811 35.9079 58.2141 35.6383 58.4688C35.3726 58.7199 34.9767 58.8939 34.4999 58.9726L33.0044 59.2197C32.9546 59.2279 32.8935 59.2288 32.8358 59.2038C32.77 59.1752 32.7215 59.1174 32.709 59.0415L32.7055 59.0207C32.6928 58.9435 32.72 58.8819 32.7448 58.8418C32.7605 58.8164 32.7845 58.7866 32.7998 58.7676C32.8041 58.7622 32.8078 58.7576 32.8103 58.7543C32.8411 58.7143 32.8519 58.6911 32.8451 58.6496L32.3768 55.8148C32.3699 55.7733 32.3523 55.7548 32.3092 55.7256C32.3057 55.7233 32.3009 55.7202 32.2954 55.7166C32.2745 55.703 32.2418 55.6818 32.2178 55.6613C32.1806 55.6296 32.137 55.5794 32.1245 55.5032L32.1219 55.4876C32.1093 55.4117 32.1367 55.3413 32.1898 55.2931C32.2363 55.2508 32.2945 55.232 32.3443 55.2238L33.6285 55.0117C34.0923 54.9351 34.4872 54.9758 34.7846 55.1203C35.0867 55.2669 35.281 55.518 35.3334 55.835C35.3856 56.1512 35.2855 56.4321 35.0794 56.6392ZM35.9501 55.5457L35.9436 54.9151C35.9396 54.8248 35.975 54.7761 36.0701 54.7604L38.7229 54.3222C38.818 54.3064 38.8671 54.3411 38.8976 54.4271L39.1163 55.028C39.1442 55.0984 39.1088 55.147 39.0454 55.1575L38.982 55.168C38.9004 55.1815 38.8226 55.0774 38.7357 54.9612C38.6258 54.8143 38.5013 54.6478 38.336 54.6751L37.76 54.7703L38.2533 57.7562C38.2725 57.8723 38.351 57.9192 38.4184 57.9594C38.469 57.9896 38.5133 58.0161 38.5215 58.0652L38.5241 58.0809C38.5318 58.1278 38.4938 58.1608 38.4198 58.173L37.5955 58.3092C37.5268 58.3206 37.4802 58.3015 37.4725 58.2546L37.4699 58.239C37.4617 58.1898 37.4942 58.1506 37.5313 58.1059C37.5807 58.0464 37.6383 57.977 37.6191 57.861L37.1259 54.875L36.5499 54.9702C36.3846 54.9975 36.3285 55.1938 36.279 55.3671C36.2399 55.5041 36.2048 55.6268 36.1231 55.6403L36.0597 55.6507C35.9963 55.6612 35.9524 55.6256 35.9501 55.5457ZM37.0023 55.0475L36.5743 55.1182C36.5563 55.1212 36.5365 55.1311 36.5114 55.171C36.484 55.2146 36.4619 55.2762 36.4387 55.3546C36.4344 55.3694 36.4298 55.3853 36.4251 55.4019C36.4078 55.4627 36.3879 55.5323 36.3644 55.588C36.3378 55.6509 36.2789 55.7666 36.1476 55.7883L36.0842 55.7987C36.0198 55.8094 35.9424 55.7992 35.8807 55.7427C35.8215 55.6885 35.802 55.6145 35.8002 55.5501L35.8001 55.5487L35.7937 54.919C35.7912 54.8561 35.8011 54.7806 35.8523 54.7164C35.9046 54.6507 35.9785 54.6235 36.0456 54.6124L38.6984 54.1742C38.7662 54.163 38.8437 54.1654 38.9139 54.2092C38.9824 54.252 39.018 54.318 39.0388 54.3764C39.0389 54.3766 39.0389 54.3768 39.039 54.377L39.2567 54.9751C39.2823 55.0413 39.2864 55.1209 39.2439 55.1921C39.2022 55.2619 39.1326 55.2951 39.0699 55.3055L39.0065 55.316C38.8777 55.3373 38.7832 55.2501 38.7359 55.2002C38.6938 55.1559 38.6502 55.0975 38.6117 55.046C38.6011 55.0318 38.5909 55.0182 38.5813 55.0056C38.5309 54.9394 38.487 54.8876 38.4441 54.8546C38.4039 54.8235 38.3794 54.82 38.3605 54.8231L37.9325 54.8938L38.4013 57.7318C38.4074 57.7686 38.4235 57.7864 38.4719 57.8165C38.4758 57.8189 38.481 57.822 38.4871 57.8256C38.5095 57.839 38.5439 57.8594 38.5692 57.8794C38.6078 57.9098 38.6562 57.9606 38.6695 58.0408L38.672 58.0564C38.6847 58.133 38.6568 58.2041 38.6017 58.2525C38.5543 58.2943 38.495 58.3126 38.4443 58.321L37.6199 58.4572C37.5701 58.4654 37.509 58.4664 37.4513 58.4413C37.3855 58.4127 37.337 58.3549 37.3245 58.279L37.3219 58.2634C37.3089 58.1846 37.3369 58.1216 37.3631 58.0801C37.3802 58.053 37.4055 58.0225 37.4219 58.0027C37.4264 57.9974 37.4301 57.9929 37.4329 57.9894C37.4675 57.9463 37.4775 57.9238 37.4712 57.8854L37.0023 55.0475ZM26.6445 60.2703L25.2442 60.5016C25.1941 60.5099 25.1339 60.5106 25.0771 60.4879C25.0136 60.4626 24.9571 60.4074 24.9434 60.3243L24.9408 60.3087C24.928 60.2312 24.9546 60.1689 24.9802 60.1271C24.9968 60.1 25.0216 60.0695 25.0375 60.0498C25.0418 60.0445 25.0454 60.0401 25.0481 60.0366C25.0811 59.9944 25.0914 59.9715 25.0848 59.9316L24.6165 57.0968C24.6099 57.0568 24.5928 57.0386 24.5479 57.0091C24.5443 57.0068 24.5394 57.0037 24.5337 57.0001C24.5123 56.9866 24.479 56.9656 24.4546 56.9453C24.4169 56.914 24.3717 56.8636 24.3589 56.786L24.3563 56.7704C24.3426 56.6873 24.3784 56.6169 24.4303 56.5725C24.4768 56.5328 24.534 56.5141 24.5841 56.5058L25.7466 56.3137C27.1076 56.0889 28.2572 56.7563 28.4469 57.9041C28.5483 58.518 28.407 59.0625 28.0787 59.4791C27.7516 59.8941 27.2483 60.1706 26.6445 60.2703ZM26.0542 59.7434C26.0811 59.7658 26.1203 59.7798 26.1818 59.7696L26.5148 59.7147C26.876 59.655 27.1599 59.4869 27.3383 59.2472C27.516 59.0083 27.5987 58.6853 27.5343 58.2957C27.3752 57.3323 26.5848 56.7524 25.7179 56.8956L25.5699 56.92C25.5548 56.9225 25.5476 56.926 25.5449 56.9277C25.5447 56.9284 25.5445 56.9293 25.5443 56.9305C25.5432 56.9361 25.5421 56.9485 25.5457 56.9701L25.9761 59.5756C25.9915 59.6687 26.0245 59.7188 26.0542 59.7434ZM33.3193 55.6451C33.3175 55.6493 33.3129 55.6648 33.3191 55.702L33.4697 56.6139C33.475 56.6456 33.4878 56.6597 33.4979 56.6666C33.5087 56.6739 33.5301 56.6821 33.5668 56.676L34.0424 56.5975C34.2133 56.5692 34.3325 56.4964 34.4033 56.4076C34.4732 56.32 34.5044 56.2068 34.483 56.0771C34.4492 55.8722 34.357 55.7357 34.2327 55.6558C34.1062 55.5744 33.9273 55.5394 33.7001 55.5769L33.3513 55.6346C33.3296 55.6381 33.3214 55.6434 33.3193 55.6451ZM33.921 58.4912L34.3543 58.4196C34.6546 58.37 34.839 58.2812 34.9407 58.1761C35.0351 58.0783 35.0745 57.9491 35.0445 57.767C34.9861 57.4136 34.6164 57.0744 33.9388 57.1863L33.5742 57.2465L33.7564 58.3492C33.7663 58.4091 33.7919 58.447 33.818 58.4678C33.8429 58.4875 33.8766 58.4985 33.921 58.4912ZM26.6201 60.1223L25.2197 60.3536C25.151 60.365 25.0992 60.3468 25.0914 60.2999L25.0888 60.2843C25.0807 60.2351 25.1122 60.1961 25.1482 60.1516C25.1961 60.0923 25.252 60.0232 25.2328 59.9071L24.7645 57.0723C24.7454 56.9563 24.6702 56.9088 24.6058 56.8681C24.5574 56.8375 24.515 56.8107 24.5069 56.7616L24.5043 56.7459C24.4966 56.699 24.5398 56.6651 24.6085 56.6538L25.7711 56.4617C27.0764 56.2461 28.1267 56.8863 28.2989 57.9285C28.4891 59.0801 27.7668 59.9329 26.6201 60.1223ZM25.8281 59.6C25.8668 59.8345 26.0108 59.9499 26.2063 59.9176L26.5392 59.8626C27.3266 59.7326 27.8226 59.1207 27.6823 58.2712C27.511 57.2342 26.6499 56.5896 25.6935 56.7476L25.5455 56.772C25.4451 56.7886 25.3744 56.8538 25.3977 56.9945L25.8281 59.6ZM33.1711 55.7264C33.1453 55.5701 33.2212 55.504 33.3269 55.4866L33.6757 55.4289C34.183 55.3451 34.5518 55.5733 34.631 56.0527C34.687 56.3914 34.4685 56.6791 34.0669 56.7455L33.5913 56.824C33.4539 56.8467 33.3441 56.7739 33.3217 56.6384L33.1711 55.7264ZM34.3787 58.5676L33.9454 58.6392C33.7763 58.6671 33.6385 58.556 33.6084 58.3736L33.4018 57.123L33.9144 57.0383C34.6542 56.9161 35.1176 57.2892 35.1925 57.7426C35.2648 58.1803 35.0076 58.4637 34.3787 58.5676Z" fill="#076377"/>
<path d="M69.1748 27.7C70.0985 26.3528 70.6906 25.6281 72.0248 25.525C70.7498 26.125 70.8998 27.1587 70.8998 30.25C69.7748 31 69.0248 31.825 68.3498 32.875C68.1998 34.3 68.1034 35.5767 67.8248 36.7652C67.1219 36.5933 67.0278 36.4969 66.3248 36.325C66.3248 33.85 66.2867 32.8871 66.7748 31.45C67.1803 30.2563 68.3115 28.9592 69.1748 27.7Z" fill="#00C5A3"/>
<g style="mix-blend-mode:multiply">
<path d="M70.971 26.2374C71.6763 25.1031 74.9016 24.9978 74.9016 24.9978C74.9016 24.9978 78.0998 24.9978 79.6557 26.2374C79.3972 28.8378 79.0748 33.85 78.3998 38.425C76.1498 39.025 74.8748 38.8583 74.8748 38.8583L71.9733 38.8583C71.9733 38.8583 71.0833 36.1605 70.971 32.5C70.9079 30.4398 70.3693 27.473 70.971 26.2374Z" fill="#00C5A3"/>
</g>
<g style="mix-blend-mode:multiply">
<path d="M66.4043 41.8861L66.9238 38.2098L67.6988 38.0469L67.4848 41.068C67.6102 41.3353 67.9572 41.9958 68.3427 42.4992C68.7282 43.0027 65.9722 47.8825 64.5461 50.2595C65.173 48.4516 66.523 44.5536 66.9073 43.4242C67.2916 42.2948 66.7321 41.9282 66.4043 41.8861Z" fill="#FE635A"/>
</g>
<g style="mix-blend-mode:multiply">
<path d="M67.1045 43.0446L70.1547 41.9373L70.1861 41.0195L67.6501 41.6836C67.4058 41.5757 66.797 41.266 66.3163 40.8902C65.8356 40.5143 62.0718 44.3712 60.25 46.3465C61.6987 45.3729 64.8228 43.2756 65.7289 42.6759C66.635 42.0761 67.0235 42.6718 67.1045 43.0446Z" fill="#FE635A"/>
</g>
<rect x="74.3097" y="40.3221" width="0.987496" height="4.71212" transform="rotate(81.8218 74.3097 40.3221)" fill="#6DC7F7"/>
<rect x="67.2134" y="34.45" width="1.02437" height="4.71213" transform="rotate(7.30398 67.2134 34.45)" fill="#6DC7F7"/>
<g style="mix-blend-mode:multiply" opacity="0.8">
<path d="M71.0294 58.5532C71.0294 58.5532 70.9953 60.7584 71.7208 61.4226C72.0319 61.7064 71.7814 61.9334 71.3947 62.0992C70.7125 62.3929 69.9297 62.333 69.2794 61.9747L68.3929 61.4859L68.4808 60.8189C68.4808 60.8189 68.8239 58.7788 68.4818 58.0759C68.1397 57.3737 71.0294 58.5532 71.0294 58.5532Z" fill="#FFDB94"/>
</g>
<g style="mix-blend-mode:multiply" opacity="0.8">
<path d="M79.0231 61.4622C79.0231 61.4622 78.989 63.6674 79.7145 64.3317C80.0255 64.6155 79.7751 64.8425 79.3883 65.0083C78.7062 65.302 77.9234 65.242 77.273 64.8837L76.3866 64.3949L76.4744 63.728C76.4744 63.728 76.8176 61.6878 76.4755 60.985C76.1333 60.2828 79.0231 61.4622 79.0231 61.4622Z" fill="#FFDB94"/>
</g>
<g style="mix-blend-mode:multiply">
<path d="M68.7332 61.7228C68.7332 61.7228 68.6245 60.5676 68.2692 60.8265C67.8778 61.1253 67.5036 61.4458 67.1487 61.7878C67.0318 61.9144 64.5658 62.8089 64.7662 63.2278C64.9661 63.6474 65.996 63.6639 67.8242 63.5679C68.5601 63.5299 71.7769 63.0033 71.7769 63.0033C71.7769 63.0033 71.8289 61.2916 71.5217 61.2427C71.2146 61.1946 69.1971 62.6204 68.7332 61.7228Z" fill="#2B7285"/>
</g>
<g style="mix-blend-mode:multiply">
<path d="M76.7268 64.6318C76.7268 64.6318 76.6182 63.4765 76.2629 63.7355C75.8714 64.0343 75.4973 64.3547 75.1423 64.6967C75.0254 64.8233 72.5594 65.7178 72.7599 66.1368C72.9597 66.5563 73.9897 66.5729 75.8179 66.4768C76.5537 66.4389 79.7706 65.9122 79.7706 65.9122C79.7706 65.9122 79.8225 64.2005 79.5154 64.1517C79.2083 64.1035 77.1908 65.5294 76.7268 64.6318Z" fill="#2B7285"/>
</g>
<path d="M66.492 36.4314C66.492 36.4314 66.5343 38.3856 67.3717 37.8463C67.7098 37.5357 68.3845 34.3934 66.492 36.4314Z" fill="#FFDB94"/>
<path d="M67.075 54.55L71.2 55.2999L71.35 57.475L67.225 56.725L67.075 54.55Z" fill="#00C5A3"/>
<path d="M27.3998 48.4C25.7691 48.9704 22.4362 51.4189 22.1498 56.65" stroke="white"/>
<g style="mix-blend-mode:multiply">
<path d="M81.4237 29.3133C80.275 26.6499 79.2083 25.6418 78.775 25.7499C78.496 25.6935 77.725 26.0499 77.8917 28.1094C78.0466 30.0224 80.1912 33.0357 81.1 34.5249C80.1514 36.0562 76.4105 38.7631 75.25 39.4749L75.808 41.7417C78.1175 40.8831 83.0065 36.2672 83.425 35.2749C83.8436 34.2826 82.2056 31.1263 81.4237 29.3133Z" fill="#00C5A3"/>
</g>
<g style="mix-blend-mode:multiply" opacity="0.7">
<path fill-rule="evenodd" clip-rule="evenodd" d="M57.4027 48.716C57.5023 48.7225 57.6108 48.7296 57.7387 48.7344C57.987 48.7435 58.1809 48.9523 58.1718 49.2006C58.1626 49.449 57.9538 49.6429 57.7055 49.6338C57.5322 49.6274 57.4041 49.619 57.2992 49.6122C57.1204 49.6006 57.0089 49.5934 56.8558 49.6075C56.8755 49.6407 56.894 49.675 56.9111 49.7104C57.0383 49.9726 57.0771 50.2609 57.0365 50.5352C57.1066 50.5317 57.171 50.5328 57.2374 50.5376C57.3019 50.5423 57.3473 50.5473 57.3918 50.5523C57.4637 50.5604 57.5335 50.5682 57.6779 50.5736C57.9263 50.5827 58.1202 50.7915 58.111 51.0398C58.1019 51.2882 57.8931 51.4821 57.6448 51.4729C57.4745 51.4667 57.3258 51.451 57.2387 51.4418C57.2091 51.4387 57.1866 51.4363 57.1729 51.4353C57.1105 51.4308 57.0417 51.4299 56.8462 51.4658C56.7105 51.4907 56.5772 51.4935 56.4493 51.4769C56.4152 51.4997 56.3798 51.5211 56.3431 51.541C55.9565 51.7505 55.5615 51.9987 55.1538 52.2867C54.9403 52.4375 54.7015 52.5141 54.4638 52.5237C54.3444 52.7652 54.1541 52.9731 53.9012 53.1101C53.5146 53.3196 53.1196 53.5679 52.7119 53.8558C52.5076 54.0002 52.2801 54.0765 52.0526 54.0912C51.9324 54.3167 51.7489 54.5103 51.5091 54.6403C51.1226 54.8497 50.7276 55.098 50.3199 55.3859C50.2384 55.4435 50.1532 55.4903 50.0658 55.5266C49.9943 55.655 49.9012 55.7735 49.7869 55.8763C49.425 56.2018 49.0539 56.55 48.6711 56.9206C48.5238 57.0631 48.3539 57.1638 48.1746 57.2234C48.112 57.4252 48.0033 57.6148 47.8485 57.7743C47.6692 57.9592 47.4875 58.1476 47.3031 58.3393C47.0251 58.6284 46.7467 58.893 46.4679 59.1341C46.2991 59.2801 46.1064 59.3747 45.9067 59.4201C45.7148 59.7217 45.4075 59.9467 45.0261 60.0134C44.1132 60.1729 43.2525 60.1027 42.4689 59.8783C41.7522 59.6731 41.363 58.9128 41.5442 58.2053C41.7275 57.49 42.444 57.0284 43.1718 57.2368C43.5886 57.3561 44.038 57.3967 44.5229 57.3217C44.5917 57.2146 44.6764 57.1158 44.7767 57.029C44.9898 56.8448 45.2088 56.6371 45.4334 56.4036C45.6199 56.2096 45.8043 56.0185 45.9868 55.8304C46.14 55.6724 46.321 55.5616 46.5132 55.4977C46.5799 55.2826 46.6988 55.0817 46.8694 54.9166C47.2708 54.528 47.6662 54.1569 48.057 53.8054C48.1721 53.7019 48.2992 53.6228 48.4326 53.5676C48.5286 53.395 48.6628 53.2412 48.8333 53.1207C49.3125 52.7822 49.7956 52.4771 50.2862 52.2113C50.4567 52.1189 50.636 52.0691 50.8138 52.0574C50.9104 51.8767 51.0483 51.7157 51.2254 51.5906C51.7045 51.2521 52.1876 50.947 52.6782 50.6812C52.8585 50.5835 53.0486 50.5334 53.2365 50.5257C53.3336 50.3298 53.4781 50.1551 53.6673 50.0215C54.1465 49.683 54.6295 49.3778 55.1201 49.112C55.3706 48.9763 55.6401 48.9325 55.8962 48.9664C56.0392 48.8702 56.2038 48.8009 56.3855 48.7675C56.8594 48.6804 57.0858 48.6952 57.4027 48.716ZM54.5761 51.586C54.5528 51.4816 54.5173 51.3787 54.4692 51.2796C54.3811 51.0978 54.2579 50.944 54.1119 50.8236C54.1341 50.7986 54.159 50.776 54.1865 50.7566C54.5574 50.4946 54.927 50.2563 55.2974 50.0437C55.2921 50.1438 55.2975 50.2455 55.3142 50.3472C55.3509 50.5702 55.4393 50.7746 55.5659 50.9468C55.258 51.1283 54.9481 51.3301 54.6346 51.5516C54.6158 51.5649 54.5962 51.5763 54.5761 51.586ZM53.1241 51.4637C53.1183 51.4665 53.1126 51.4694 53.107 51.4725C52.6522 51.7188 52.1994 52.0045 51.7446 52.3257C51.7341 52.3331 51.7241 52.3409 51.7143 52.3492C51.8628 52.4702 51.9879 52.6256 52.0772 52.8097M51.6723 53.006L52.0772 52.8097C52.1267 52.9117 52.1628 53.0177 52.1861 53.1253C52.1883 53.1238 52.1905 53.1223 52.1927 53.1207C52.6247 52.8155 53.0499 52.5477 53.4724 52.3188C53.516 52.2952 53.5549 52.2636 53.588 52.2262C53.4807 52.1376 53.3852 52.0304 53.3064 51.9058C53.2188 51.7672 53.1584 51.6175 53.1241 51.4637M50.6798 53.0217C50.3244 53.2159 49.9701 53.434 49.6151 53.6742C49.7333 53.7498 49.8419 53.8461 49.9355 53.9625C50.0421 54.0948 50.1206 54.2424 50.1715 54.397C50.4769 54.1949 50.7793 54.0121 51.0804 53.849C51.1058 53.8352 51.1296 53.8187 51.1516 53.7999C51.0421 53.7105 50.9446 53.6017 50.8645 53.4749C50.7748 53.333 50.7136 53.1794 50.6798 53.0217ZM49.2368 54.5298C49.2461 54.5415 49.2547 54.5535 49.2627 54.5659C49.2537 54.5544 49.2451 54.5424 49.2368 54.5298ZM48.3484 54.757C48.0678 55.0152 47.7837 55.2842 47.4953 55.5633C47.4938 55.5647 47.4924 55.5662 47.4909 55.5676C47.6295 55.6368 47.7588 55.7326 47.8715 55.8547C47.9712 55.9627 48.0505 56.0834 48.1095 56.2116C48.3856 55.9453 48.6568 55.6894 48.9239 55.4444C48.7468 55.3402 48.5908 55.1922 48.4725 55.005C48.4222 54.9256 48.3809 54.8425 48.3484 54.757ZM46.5796 56.5119C46.4155 56.6812 46.2498 56.8531 46.0821 57.0274C45.9063 57.2103 45.7322 57.3798 45.5601 57.5368C45.8043 57.7139 45.9891 57.9749 46.0747 58.28C46.2669 58.1054 46.4602 57.9174 46.6544 57.7155C46.8376 57.5249 47.0185 57.3375 47.197 57.1534C47.0462 57.0781 46.9068 56.9717 46.7881 56.8347C46.7022 56.7355 46.6327 56.6267 46.5796 56.5119ZM44.3118 58.2501C43.8209 58.2838 43.3572 58.226 42.9241 58.102C42.7238 58.0447 42.4841 58.163 42.4161 58.4287C42.346 58.7023 42.5053 58.9526 42.7167 59.0131C43.353 59.1953 44.0466 59.2568 44.7846 59.1411C44.7154 59.0821 44.651 59.0149 44.5927 58.9397C44.4339 58.7345 44.3409 58.4951 44.3118 58.2501ZM61.4625 50.0754C61.6357 49.8971 61.9206 49.8931 62.0988 50.0663L61.7852 50.389C62.0988 50.0663 62.0988 50.0663 62.0988 50.0663L62.099 50.0665L62.0994 50.0669L62.1062 50.0735L62.1262 50.093C62.1435 50.11 62.1685 50.1346 62.1998 50.1655C62.2622 50.2273 62.3496 50.3143 62.4496 50.4157C62.6483 50.6173 62.9021 50.8808 63.1096 51.1172C63.139 51.1506 63.1665 51.1852 63.1921 51.2208C63.4733 51.2773 63.7387 51.4286 63.9398 51.6704C64.3289 52.1381 64.6868 52.5443 65.0378 52.8858C65.156 53.0008 65.2493 53.1331 65.3174 53.2754C65.5797 53.3392 65.8255 53.4866 66.0145 53.7138C66.4036 54.1815 66.7615 54.5877 67.1125 54.9292C67.2906 55.1025 67.2945 55.3874 67.1212 55.5655C66.9479 55.7436 66.663 55.7476 66.4849 55.5742C66.1176 55.2168 65.7531 54.8045 65.3759 54.3532C65.3193 54.5152 65.2322 54.6686 65.1143 54.804C65.0252 54.9064 64.9244 54.9916 64.816 55.0593C65.1837 55.497 65.5532 55.9133 65.9334 56.2832C66.1005 56.4458 66.3529 56.4371 66.5103 56.2564C66.6735 56.0689 66.9577 56.0493 67.1452 56.2125C67.3326 56.3757 67.3522 56.66 67.189 56.8474C66.6952 57.4145 65.8462 57.454 65.3058 56.9283C64.8545 56.4891 64.4261 55.9985 64.0152 55.5045C63.9414 55.4159 63.8805 55.32 63.8323 55.2195C63.6145 55.1667 63.4065 55.0556 63.2311 54.8849C62.7797 54.4457 62.3514 53.9551 61.9405 53.4612C61.9199 53.4364 61.9002 53.411 61.8816 53.3852C61.612 53.331 61.3563 53.1896 61.1573 52.963C60.7937 52.5489 60.7152 52.4659 60.3149 52.0873C60.1344 51.9165 60.1265 51.6317 60.2972 51.4511C60.468 51.2706 60.7528 51.2627 60.9334 51.4335C61.2883 51.7692 61.4137 51.8954 61.6713 52.1852C61.7375 51.9465 61.8672 51.7234 62.059 51.5451C62.1 51.507 62.1427 51.472 62.1868 51.4401C62.0582 51.3029 61.9255 51.1661 61.8087 51.0476C61.7119 50.9494 61.6273 50.8651 61.5669 50.8054C61.5368 50.7756 61.5127 50.752 61.4963 50.7359L61.4776 50.7176L61.4729 50.713L61.4718 50.712L61.4716 50.7117C61.2934 50.5385 61.2893 50.2536 61.4625 50.0754ZM62.8751 53.1741C62.9329 53.1333 62.9884 53.0872 63.0409 53.0357C63.2167 52.8632 63.3367 52.6525 63.4003 52.4278C63.7121 52.7972 64.016 53.1386 64.321 53.443C64.2557 53.4849 64.193 53.5334 64.1337 53.5885C63.9625 53.7476 63.8409 53.9424 63.7696 54.1521C63.4666 53.8503 63.1699 53.5201 62.8751 53.1741Z" fill="#00C5A3"/>
</g>
<g style="mix-blend-mode:multiply" opacity="0.5">
<path fill-rule="evenodd" clip-rule="evenodd" d="M57.4027 48.716C57.5023 48.7225 57.6108 48.7296 57.7387 48.7344C57.987 48.7435 58.1809 48.9523 58.1718 49.2006C58.1626 49.449 57.9538 49.6429 57.7055 49.6338C57.5322 49.6274 57.4041 49.619 57.2992 49.6122C57.0224 49.5943 56.9068 49.5868 56.5481 49.6527C56.3366 49.6915 56.1562 49.921 56.2023 50.2012C56.2475 50.4761 56.4797 50.6181 56.6836 50.5806C56.9289 50.5355 57.0773 50.5261 57.2374 50.5376C57.3019 50.5423 57.3473 50.5473 57.3918 50.5523C57.4637 50.5604 57.5335 50.5682 57.6779 50.5736C57.9263 50.5827 58.1202 50.7915 58.111 51.0398C58.1019 51.2882 57.8931 51.4821 57.6448 51.4729C57.4745 51.4667 57.3258 51.451 57.2387 51.4418C57.2091 51.4387 57.1866 51.4363 57.1729 51.4353C57.1105 51.4308 57.0417 51.4299 56.8462 51.4658C56.1028 51.6024 55.4336 51.0736 55.3142 50.3472C55.1956 49.626 55.6498 48.9026 56.3855 48.7675C56.8594 48.6804 57.0858 48.6952 57.4027 48.716ZM61.4625 50.0754C61.6357 49.8971 61.9206 49.8931 62.0988 50.0663L61.8056 50.368C62.0988 50.0663 62.0988 50.0663 62.0988 50.0663L62.099 50.0665L62.0994 50.0669L62.1062 50.0735L62.1262 50.093C62.1435 50.11 62.1685 50.1346 62.1998 50.1655C62.2622 50.2273 62.3496 50.3143 62.4496 50.4157C62.6483 50.6173 62.9021 50.8808 63.1096 51.1172C63.5933 51.6679 63.5649 52.5215 63.0409 53.0357C62.5028 53.5637 61.6536 53.5281 61.1573 52.963C60.7937 52.5489 60.7152 52.4659 60.3149 52.0873C60.1344 51.9165 60.1264 51.6317 60.2972 51.4511C60.468 51.2706 60.7528 51.2627 60.9334 51.4335C61.3552 51.8325 61.4529 51.9356 61.8336 52.3692C61.9915 52.549 62.2439 52.5568 62.4105 52.3933C62.5913 52.216 62.6039 51.9052 62.4334 51.711C62.2431 51.4943 62.0037 51.2454 61.8087 51.0476C61.7119 50.9494 61.6273 50.8651 61.5669 50.8054C61.5368 50.7756 61.5127 50.752 61.4963 50.7359L61.4776 50.7176L61.4729 50.713L61.4718 50.712L61.4716 50.7117C61.2934 50.5385 61.2893 50.2536 61.4625 50.0754ZM52.6782 50.6812C53.3444 50.3202 54.1445 50.6099 54.4692 51.2796C54.7879 51.9367 54.5518 52.7576 53.9012 53.1101C53.5146 53.3196 53.1196 53.5679 52.7119 53.8558C52.0939 54.2924 51.264 54.1069 50.8645 53.4749C50.4738 52.857 50.6232 52.016 51.2254 51.5906C51.7045 51.2521 52.1876 50.947 52.6782 50.6812ZM53.6594 51.6723C53.5456 51.4375 53.2965 51.3698 53.107 51.4725C52.6522 51.7188 52.1994 52.0045 51.7446 52.3257C51.5473 52.4651 51.4817 52.7669 51.6252 52.994C51.7599 53.2071 52.0112 53.2489 52.1927 53.1207C52.6247 52.8155 53.0499 52.5477 53.4724 52.3188C53.6774 52.2077 53.7794 51.9196 53.6594 51.6723ZM64.1337 53.5885C64.6863 53.0749 65.534 53.1361 66.0145 53.7138C66.4036 54.1815 66.7615 54.5877 67.1125 54.9292C67.2906 55.1025 67.2945 55.3874 67.1212 55.5655C66.9479 55.7436 66.663 55.7476 66.4849 55.5742C66.1003 55.2001 65.7189 54.7656 65.3226 54.2893C65.1682 54.1037 64.9159 54.0902 64.7464 54.2478C64.5624 54.4188 64.5406 54.7289 64.7071 54.929C65.1108 55.4143 65.5157 55.8768 65.9334 56.2832C66.1005 56.4458 66.3529 56.4371 66.5103 56.2564C66.6735 56.0689 66.9577 56.0493 67.1452 56.2125C67.3326 56.3757 67.3522 56.66 67.189 56.8474C66.6952 57.4145 65.8462 57.454 65.3058 56.9283C64.8545 56.4891 64.4261 55.9985 64.0152 55.5045C63.5467 54.9414 63.5956 54.0886 64.1337 53.5885ZM48.057 53.8054C48.6182 53.3007 49.4647 53.3774 49.9355 53.9625C50.3947 54.533 50.3334 55.3849 49.7869 55.8763C49.425 56.2018 49.0539 56.55 48.6711 56.9206C48.1293 57.445 47.2804 57.403 46.7881 56.8347C46.3082 56.2808 46.3418 55.4273 46.8694 54.9166C47.2708 54.528 47.6662 54.1569 48.057 53.8054ZM49.2344 54.5268C49.0822 54.3376 48.8299 54.3207 48.6588 54.4746C48.2777 54.8173 47.8905 55.1808 47.4953 55.5633C47.3137 55.7391 47.2988 56.0497 47.4683 56.2454C47.6254 56.4266 47.8778 56.4359 48.0451 56.2739C48.4342 55.8972 48.8135 55.5413 49.1851 55.2071C49.3711 55.0399 49.3983 54.7304 49.2344 54.5268ZM41.5442 58.2053C41.7275 57.49 42.444 57.0284 43.1718 57.2368C43.607 57.3614 44.0777 57.4002 44.5872 57.3111C45.3316 57.181 45.9963 57.7155 46.1101 58.4426C46.223 59.1648 45.7632 59.8846 45.0261 60.0134C44.1132 60.1729 43.2525 60.1027 42.4689 59.8783C41.7522 59.6731 41.363 58.9128 41.5442 58.2053ZM42.9241 58.102C42.7238 58.0447 42.4841 58.163 42.4161 58.4287C42.346 58.7023 42.5053 58.9526 42.7167 59.0131C43.3778 59.2024 44.1008 59.2614 44.8711 59.1268C45.0827 59.0898 45.2648 58.8623 45.2209 58.5817C45.1778 58.3061 44.9463 58.162 44.7421 58.1977C44.0902 58.3116 43.4817 58.2617 42.9241 58.102Z" fill="#00C5A3"/>
</g>
<path d="M75.8076 41.7418C78.1171 40.8832 83.0061 36.2673 83.4246 35.275C82.4496 34.975 82.2246 34.975 81.0996 34.5249C80.151 36.0562 76.4101 38.7631 75.2496 39.475L75.8076 41.7418Z" fill="#00C5A3"/>
<g style="mix-blend-mode:multiply" opacity="0.75">
<path d="M85.1498 48.4L85.1498 9.10003L45.8498 9.10002" fill="#E2F4FE"/>
</g>
<ellipse opacity="0.11" cx="52.3748" cy="66.85" rx="33.075" ry="1.2" fill="#2B7285"/>
<g style="mix-blend-mode:multiply">
<path d="M75.1739 26.6499C74.3505 26.6499 73.6835 25.9814 73.6835 25.157V24.0339C72.3117 24.0339 71.1998 22.9199 71.1998 21.5464V18.5103C71.1998 16.8752 72.5221 15.5499 74.1558 15.5499C75.7086 15.5499 76.9528 16.8387 76.8981 18.3923L76.6642 25.2079C76.6356 26.0127 75.977 26.6499 75.1739 26.6499Z" fill="#FFDB94"/>
</g>
<path d="M76.2998 19.45V21.4C76.2998 21.4 77.536 21.3112 77.499 20.4244C77.4605 19.5387 76.2998 19.45 76.2998 19.45Z" fill="#FFDD6A"/>
<ellipse cx="74.125" cy="19.45" rx="0.374998" ry="0.3" fill="#003147"/>
<ellipse cx="71.5748" cy="19.45" rx="0.375" ry="0.3" fill="#003147"/>
<g style="mix-blend-mode:multiply">
<path d="M72.8497 19.45L71.9497 21.1H72.8497V19.45Z" fill="#FFDD6A"/>
</g>
<g style="mix-blend-mode:multiply">
<path d="M74.1027 21.4L72.6997 22.2704C72.6997 22.2704 73.3487 23.1269 73.8884 22.5508C74.4275 21.9747 74.1027 21.4 74.1027 21.4Z" fill="#FFDB94"/>
</g>
<g style="mix-blend-mode:multiply">
<path d="M75.26 18.0607C75.26 18.0607 71.7237 18.0348 71.5083 16.7235C71.2929 15.4109 75.317 13.0505 76.834 15.7133C78.351 18.3761 77.0488 23.5761 77.7082 23.7049C78.3676 23.8338 75.2594 23.7943 75.2594 23.7943L75.26 18.0607Z" fill="#2B7285"/>
</g>
<path d="M75.9248 41.2001C75.9248 41.2001 73.2409 42.6923 72.88 42.2855C72.5191 41.8787 74.2771 40.6422 74.2771 40.6422L73.5962 40.6469C73.5962 40.6469 74.4003 39.6971 75.3998 39.775L75.9248 41.2001Z" fill="#FFDB94"/>
</svg>
