<svg width="112" height="77" viewBox="0 0 112 77" fill="none" xmlns="http://www.w3.org/2000/svg">
<rect y="0.482056" width="112" height="76" rx="4" fill="white"/>
<ellipse cx="66.0832" cy="20.1032" rx="5.5455" ry="5.54551" fill="#FFDD6A"/>
<mask id="path-3-inside-1_1_796" fill="white">
<ellipse cx="66.1167" cy="20.1368" rx="3.63326" ry="3.63326"/>
</mask>
<path d="M63.7499 20.1368C63.7499 18.8297 64.8095 17.7701 66.1167 17.7701V29.7701C71.437 29.7701 75.7499 25.4571 75.7499 20.1368H63.7499ZM66.1167 17.7701C67.4238 17.7701 68.4834 18.8297 68.4834 20.1368H56.4834C56.4834 25.4571 60.7964 29.7701 66.1167 29.7701V17.7701ZM68.4834 20.1368C68.4834 21.4439 67.4238 22.5035 66.1167 22.5035V10.5035C60.7964 10.5035 56.4834 14.8165 56.4834 20.1368H68.4834ZM66.1167 22.5035C64.8095 22.5035 63.7499 21.4439 63.7499 20.1368H75.7499C75.7499 14.8165 71.437 10.5035 66.1167 10.5035V22.5035Z" fill="#F8C30F" mask="url(#path-3-inside-1_1_796)"/>
<g style="mix-blend-mode:multiply" opacity="0.9">
<path fill-rule="evenodd" clip-rule="evenodd" d="M71.9292 42.7627C70.5745 42.7723 69.2622 43.3577 68.726 44.3189L67.8965 43.8573C68.6599 42.4888 70.3721 41.8253 71.9224 41.8143C73.3786 41.8039 74.9421 42.3767 75.5374 43.7685C77.145 44.2182 78.2392 46.031 77.7496 47.9869L76.8284 47.7569C77.1443 46.4947 76.5956 45.3996 75.7771 44.9004C75.7779 44.9312 75.7783 44.9622 75.7783 44.9934C75.7783 46.0455 75.448 46.9384 74.8644 47.4661C74.5689 47.7332 74.2085 47.9043 73.8102 47.9371C73.4117 47.9699 73.0098 47.8615 72.6348 47.6274C72.0459 47.2598 71.9433 46.5091 72.0282 45.9283C72.1175 45.3167 72.4378 44.6451 73.0026 44.2503C73.4502 43.9373 73.9191 43.7554 74.3836 43.6905C73.876 43.0846 72.9733 42.7552 71.9292 42.7627ZM74.7993 44.6118C74.4032 44.6067 73.9754 44.7279 73.5472 45.0272C73.2487 45.2359 73.0296 45.6421 72.9678 46.0651C72.9015 46.5189 73.0363 46.7597 73.1381 46.8232C73.3641 46.9643 73.5647 47.0057 73.7322 46.9919C73.8998 46.9781 74.0686 46.9063 74.2271 46.763C74.5515 46.4696 74.8287 45.8714 74.8287 44.9934C74.8287 44.8581 74.8185 44.7311 74.7993 44.6118Z" fill="#FE635A"/>
<path d="M51.5433 21.736L54.1389 25.9936C54.1812 25.9933 54.2236 25.9931 54.266 25.9931C63.6581 25.9931 71.272 33.5975 71.272 42.9781C71.272 47.7014 69.3416 50.0777 66.2258 53.1563L66.2394 53.1518C66.2194 53.1685 66.1995 53.1851 66.1797 53.2016C65.8243 53.5502 65.4536 53.8833 65.0687 54.1998C63.4042 55.851 62.9557 57.3298 63.995 60.2648H58.2973C58.2742 57.5705 56.0801 55.3935 53.377 55.3935C51.1562 55.3935 49.2789 56.863 48.6669 58.8815C48.4892 59.3482 48.4177 59.833 48.4133 60.2648H42.9749C42.5956 57.448 41.5576 55.2688 40.6507 53.7608C38.4593 50.117 34.2231 47.7101 30.8462 45.3491L30.8462 36.8135C30.8462 36.8135 34.5016 38.3224 37.692 34.4856C38.8959 33.0379 40.0997 31.8485 41.2827 30.8699C41.2832 30.8446 41.2859 30.8188 41.2911 30.7925L42.8305 22.9847C42.8972 22.6462 43.3153 22.5192 43.5594 22.7634L47.9461 27.1499C47.9694 27.1424 47.9927 27.1349 48.016 27.1275L50.4785 21.797C50.6811 21.3584 51.2918 21.3234 51.5433 21.736Z" fill="#FE635A"/>
</g>
<g style="mix-blend-mode:multiply" opacity="0.8">
<path fill-rule="evenodd" clip-rule="evenodd" d="M56.081 29.9988C55.2892 29.8797 54.7365 29.8827 54.4981 29.9231L54.2385 28.3897C54.7164 28.3088 55.4592 28.3326 56.3123 28.4609C57.1855 28.5922 58.2348 28.8423 59.3442 29.2543C61.5584 30.0767 64.061 31.5639 65.8517 34.0956L64.582 34.9937C63.0223 32.7886 60.8169 31.4604 58.8027 30.7122C57.7978 30.339 56.8528 30.1149 56.081 29.9988Z" fill="#D88F8B"/>
</g>
<rect x="52.7971" y="37.2019" width="2.88828" height="12.3619" fill="#FFFBF0"/>
<rect x="60.5377" y="41.9386" width="2.77275" height="12.3619" transform="rotate(90 60.5377 41.9386)" fill="#FFFBF0"/>
<g style="mix-blend-mode:multiply" opacity="0.8">
<ellipse cx="41.937" cy="35.5266" rx="1.15531" ry="2.13733" fill="#D88F8B"/>
</g>
<path opacity="0.12" fill-rule="evenodd" clip-rule="evenodd" d="M34.0192 60.4231C34.0192 61.3789 42.543 62.1538 53.0577 62.1538C63.5722 62.1538 72.0962 61.3789 72.0962 60.4231C72.0962 59.467 63.5722 58.6923 53.0577 58.6923C42.543 58.6923 34.0192 59.467 34.0192 60.4231Z" fill="#2B7285"/>
</svg>
