<svg width="112" height="77" viewBox="0 0 112 77" fill="none" xmlns="http://www.w3.org/2000/svg">
<rect y="0.482056" width="112" height="76" rx="4" fill="white"/>
<g style="mix-blend-mode:multiply" opacity="0.75">
<path d="M38.2664 44.6501H70.2855L70.8498 45.1001V64.7501H37.6998V45.1001L38.2664 44.6501Z" fill="#00C5A3"/>
</g>
<g style="mix-blend-mode:multiply" opacity="0.8">
<rect x="50" y="48.55" width="8.55" height="15.6" fill="#00C5A3"/>
</g>
<g style="mix-blend-mode:multiply" opacity="0.8">
<path d="M41 51.775C41 49.9939 42.4439 48.55 44.225 48.55C46.0061 48.55 47.45 49.9939 47.45 51.775V56.95H41V51.775Z" fill="#00C5A3"/>
</g>
<g style="mix-blend-mode:multiply" opacity="0.8">
<path d="M61.1002 51.7751C61.1002 49.9939 62.5441 48.55 64.3252 48.55C66.1063 48.55 67.5502 49.9939 67.5502 51.7751V56.95H61.1002V51.7751Z" fill="#00C5A3"/>
</g>
<g style="mix-blend-mode:multiply">
<rect x="51.1998" y="49.9001" width="2.7" height="3.59999" fill="#00C5A3"/>
</g>
<g style="mix-blend-mode:multiply">
<path d="M41.9 51.5501C41.9 50.4731 42.773 49.6001 43.85 49.6001V52.4501H41.9V51.5501Z" fill="#00C5A3"/>
</g>
<g style="mix-blend-mode:multiply">
<path d="M62 51.5501C62 50.4731 62.873 49.6001 63.95 49.6001V52.4501H62V51.5501Z" fill="#00C5A3"/>
</g>
<g style="mix-blend-mode:multiply">
<rect x="41.9" y="53.2001" width="1.95" height="2.84999" fill="#00C5A3"/>
</g>
<g style="mix-blend-mode:multiply">
<rect x="62" y="53.2001" width="1.95" height="2.84999" fill="#00C5A3"/>
</g>
<g style="mix-blend-mode:multiply">
<rect x="54.8" y="49.9001" width="2.7" height="3.59999" fill="#00C5A3"/>
</g>
<g style="mix-blend-mode:multiply">
<path d="M44.6002 49.6001C45.6771 49.6001 46.5502 50.4731 46.5502 51.5501V52.4501H44.6002V49.6001Z" fill="#00C5A3"/>
</g>
<g style="mix-blend-mode:multiply">
<path d="M64.6998 49.6001C65.7768 49.6001 66.6498 50.4731 66.6498 51.5501V52.4501H64.6998V49.6001Z" fill="#00C5A3"/>
</g>
<g style="mix-blend-mode:multiply">
<rect x="44.6002" y="53.2001" width="1.95" height="2.84999" fill="#00C5A3"/>
</g>
<g style="mix-blend-mode:multiply">
<rect x="64.6998" y="53.2001" width="1.95" height="2.84999" fill="#00C5A3"/>
</g>
<g style="mix-blend-mode:multiply">
<rect x="51.1998" y="54.1001" width="2.7" height="3.75" fill="#00C5A3"/>
</g>
<g style="mix-blend-mode:multiply">
<rect x="54.8" y="54.1001" width="2.7" height="3.75" fill="#00C5A3"/>
</g>
<g style="mix-blend-mode:multiply" opacity="0.7">
<path d="M54.2748 31.9001L70.8498 45.1002H37.6998L54.2748 31.9001Z" fill="#00C5A3"/>
</g>
<ellipse opacity="0.11" cx="54.2" cy="65.125" rx="31.05" ry="2.325" fill="#2B7285"/>
<g style="mix-blend-mode:multiply">
<path d="M41.8911 26.4263C41.3317 28.1211 39.0567 30.384 37.352 29.8389C35.6474 29.2937 35.1584 26.147 35.7178 24.4522C36.2785 22.758 38.1151 21.8276 39.8192 22.3742C41.5215 22.92 42.4483 24.7331 41.8911 26.4263Z" fill="#00C5A3"/>
</g>
<path opacity="0.321661" d="M37.0113 29.5933L37.1254 29.5885L37.13 29.6269C37.1334 29.6578 37.1371 29.6938 37.1408 29.7346C37.1514 29.8508 37.1604 29.982 37.1664 30.1257C37.1836 30.536 37.1741 30.9638 37.1278 31.3878C36.9893 32.6554 36.5587 33.6233 35.7425 34.0992L35.7121 34.1166C34.9268 34.5576 34.823 35.6149 35.2173 37.0644C35.3516 37.5583 35.5351 38.0623 35.745 38.5492C35.8185 38.7197 35.8899 38.8758 35.9566 39.0141L35.996 39.095L36.0418 39.186L35.9417 39.2349L35.9182 39.1888C35.9033 39.159 35.8866 39.1253 35.8684 39.0879L35.8545 39.0592C35.7871 38.9191 35.7148 38.7613 35.6405 38.5891C35.4284 38.0968 35.2428 37.5871 35.1066 37.0865C34.7037 35.6054 34.8063 34.5049 35.625 34.0245L35.65 34.0101C36.4506 33.5605 36.8766 32.6146 37.0133 31.3632C37.0589 30.9457 37.0683 30.524 37.0513 30.1194C37.0454 29.9779 37.0366 29.8487 37.0261 29.7344L37.0197 29.6678L37.0113 29.5933Z" fill="#2B7285"/>
<g style="mix-blend-mode:multiply">
<path d="M33.8248 28.4823C34.4746 29.9929 34.2675 32.9216 32.7335 33.5612C31.1992 34.2011 28.9189 32.3089 28.2691 30.7988C27.6194 29.2887 28.3366 27.5457 29.8706 26.9061C31.4049 26.2667 33.1751 26.9722 33.8248 28.4823Z" fill="#FE635A"/>
</g>
<ellipse opacity="0.4" rx="0.631689" ry="0.756803" transform="matrix(-0.926195 0.388931 -0.390896 -0.915385 31.7177 27.9778)" fill="white"/>
<ellipse opacity="0.4" rx="0.766373" ry="0.904828" transform="matrix(-0.986082 0.166262 -0.172566 -0.984998 40.2621 25.2688)" fill="white"/>
<g style="mix-blend-mode:multiply">
<path d="M44.7385 33.7368C44.0898 35.2328 41.8509 37.1125 40.3654 36.4859C38.8803 35.8594 38.7108 32.9639 39.3592 31.4679C40.0077 29.9719 41.7378 29.2672 43.2229 29.894C44.7081 30.5203 45.3869 32.2409 44.7385 33.7368Z" fill="#FFDD6A"/>
</g>
<ellipse opacity="0.4" rx="0.660552" ry="0.781777" transform="matrix(-0.935123 0.354322 -0.359498 -0.933146 43.5486 32.1135)" fill="white"/>
<path opacity="0.362095" d="M40.1548 36.2091L40.2048 36.298L40.1806 36.3186L40.1657 36.3317C40.1337 36.36 40.0972 36.3934 40.0571 36.4317C39.9422 36.5413 39.821 36.6678 39.6992 36.8094C39.2271 37.3581 38.884 37.965 38.7646 38.5986C38.7274 38.7958 38.7131 38.9924 38.7232 39.188L38.7259 39.2332C38.7413 39.4504 38.7274 39.6686 38.6864 39.887C38.5622 40.5488 38.2025 41.1744 37.7076 41.737C37.5798 41.8824 37.4523 42.0122 37.3312 42.1247L37.29 42.1625C37.2767 42.1746 37.2639 42.1861 37.2515 42.197L37.2159 42.2281C37.2011 42.2407 37.1894 42.2506 37.181 42.2575L37.1726 42.2644L37.1239 42.1744L37.1423 42.1593C37.1484 42.1541 37.1557 42.1479 37.1641 42.1407L37.1986 42.1106C37.2226 42.0895 37.2484 42.0661 37.2759 42.0405C37.3941 41.9307 37.5185 41.804 37.6434 41.662C38.1236 41.116 38.4714 40.5112 38.5903 39.8779C38.6264 39.6853 38.6403 39.4931 38.6305 39.3015L38.6278 39.2573C38.6121 39.0357 38.6264 38.8128 38.6684 38.5894C38.7931 37.9279 39.1477 37.3007 39.634 36.7354C39.7587 36.5905 39.8828 36.461 40.0006 36.3486C40.035 36.3158 40.0669 36.2864 40.0958 36.2605L40.1413 36.2205L40.1548 36.2091Z" fill="#2B7285"/>
<path opacity="0.362095" d="M32.3065 33.4424L32.4189 33.467L32.4161 33.5021L32.4146 33.524C32.4116 33.5712 32.4092 33.6258 32.4077 33.687C32.4036 33.8622 32.408 34.055 32.4242 34.2594C32.4868 35.0519 32.7008 35.7815 33.1174 36.3472C33.247 36.5232 33.3946 36.68 33.5612 36.8161L33.6 36.8472C33.7884 36.9949 33.9539 37.1673 34.0976 37.3622C34.5331 37.9526 34.7488 38.7095 34.8043 39.5309C34.8186 39.7432 34.8206 39.9436 34.8138 40.1261L34.8112 40.1878C34.8102 40.2076 34.8091 40.2266 34.8079 40.2448L34.8043 40.297C34.8026 40.3185 34.8011 40.3354 34.7999 40.3474L34.7987 40.3594L34.6865 40.3329L34.6891 40.3067C34.6898 40.2978 34.6907 40.2872 34.6917 40.275L34.6952 40.2245C34.6974 40.1893 34.6994 40.1508 34.7009 40.1093C34.7076 39.9313 34.7055 39.7356 34.6916 39.5283C34.6378 38.7312 34.4291 37.9993 34.0124 37.4343C33.8857 37.2625 33.7413 37.1093 33.5782 36.976L33.5402 36.9456C33.348 36.7949 33.179 36.6186 33.0322 36.4192C32.5972 35.8288 32.3761 35.0747 32.3116 34.2584C32.295 34.0491 32.2905 33.8517 32.2948 33.672C32.296 33.6195 32.298 33.5717 32.3004 33.5289L32.3048 33.4619L32.3065 33.4424Z" fill="#2B7285"/>
<g style="mix-blend-mode:multiply" opacity="0.55">
<ellipse cx="74.7855" cy="20.713" rx="8.12432" ry="8.1993" transform="rotate(-150 74.7855 20.713)" fill="#FFDB94"/>
</g>
<g style="mix-blend-mode:multiply" opacity="0.427037">
<path fill-rule="evenodd" clip-rule="evenodd" d="M77.1517 65.1339C77.1517 65.1339 79.7606 63.7101 79.3201 60.7162C78.8795 57.7223 81.0155 54.8111 81.0155 54.8111C81.0155 54.8111 76.3409 55.5031 75.8232 59.266C75.3055 63.0289 77.1517 65.1339 77.1517 65.1339Z" fill="#00C5A3"/>
</g>
<g style="mix-blend-mode:multiply" opacity="0.427037">
<path fill-rule="evenodd" clip-rule="evenodd" d="M72.0034 58.1367C72.0034 58.1367 74.3153 59.7339 74.0123 61.7111C73.7092 63.6883 76.9654 65.0861 76.9654 65.0861C76.9654 65.0861 77.1273 57.1543 72.0034 58.1367Z" fill="#00C5A3"/>
</g>
<g style="mix-blend-mode:multiply" opacity="0.427037">
<path fill-rule="evenodd" clip-rule="evenodd" d="M82.6963 58.4945C82.6963 58.4945 80.3622 60.0162 80.649 61.9869C80.9357 63.9575 77.3162 65.1468 77.3162 65.1468C77.3162 65.1468 77.5631 57.3791 82.6963 58.4945Z" fill="#00C5A3"/>
</g>
<g style="mix-blend-mode:multiply">
<path fill-rule="evenodd" clip-rule="evenodd" d="M54.1999 30.1001L73.0999 45.1001H70.1754L54.1999 32.4214L38.2595 45.1001H35.2999L54.1999 30.1001Z" fill="#00C5A3"/>
</g>
<g style="mix-blend-mode:multiply" opacity="0.75">
<path fill-rule="evenodd" clip-rule="evenodd" d="M54.1999 30.1001L73.0999 45.1001H70.1754L54.1999 32.4214L38.2595 45.1001H35.2999L54.1999 30.1001Z" fill="#00C5A3"/>
</g>
<g style="mix-blend-mode:multiply">
<circle cx="54.2748" cy="39.4751" r="2.5" fill="#00C5A3"/>
<circle cx="54.2748" cy="39.4751" r="2.5" stroke="#00C5A3" stroke-width="1.15"/>
</g>
<mask id="mask0_1_182" style="mask-type:alpha" maskUnits="userSpaceOnUse" x="52" y="37" width="5" height="5">
<g style="mix-blend-mode:multiply">
<ellipse cx="54.2748" cy="39.4751" rx="2.15904" ry="2.15904" fill="#00C5A3"/>
</g>
</mask>
<g mask="url(#mask0_1_182)">
<g style="mix-blend-mode:multiply">
<mask id="path-37-inside-1_1_182" fill="white">
<path fill-rule="evenodd" clip-rule="evenodd" d="M54.2748 41.6341C55.4672 41.6341 56.4338 40.6675 56.4338 39.4751C56.4338 38.2827 55.4672 37.316 54.2748 37.316C53.0824 37.316 52.1158 38.2827 52.1158 39.4751C52.1158 40.6675 53.0824 41.6341 54.2748 41.6341ZM263.319 238.745H268.204V255.32H285.128V260.205H268.204V277.128H263.319V260.205H246.745V255.32H263.319V238.745Z"/>
</mask>
<path fill-rule="evenodd" clip-rule="evenodd" d="M54.2748 41.6341C55.4672 41.6341 56.4338 40.6675 56.4338 39.4751C56.4338 38.2827 55.4672 37.316 54.2748 37.316C53.0824 37.316 52.1158 38.2827 52.1158 39.4751C52.1158 40.6675 53.0824 41.6341 54.2748 41.6341ZM263.319 238.745H268.204V255.32H285.128V260.205H268.204V277.128H263.319V260.205H246.745V255.32H263.319V238.745Z" fill="#00C5A3"/>
<path d="M268.204 238.745H273.204V233.745H268.204V238.745ZM263.319 238.745V233.745H258.319V238.745H263.319ZM268.204 255.32H263.204V260.32H268.204V255.32ZM285.128 255.32H290.128V250.32H285.128V255.32ZM285.128 260.205V265.205H290.128V260.205H285.128ZM268.204 260.205V255.205H263.204V260.205H268.204ZM268.204 277.128V282.128H273.204V277.128H268.204ZM263.319 277.128H258.319V282.128H263.319V277.128ZM263.319 260.205H268.319V255.205H263.319V260.205ZM246.745 260.205H241.745V265.205H246.745V260.205ZM246.745 255.32V250.32H241.745V255.32H246.745ZM263.319 255.32V260.32H268.319V255.32H263.319ZM51.4338 39.4751C51.4338 37.9061 52.7058 36.6341 54.2748 36.6341V46.6341C58.2286 46.6341 61.4338 43.4289 61.4338 39.4751H51.4338ZM54.2748 42.316C52.7058 42.316 51.4338 41.0441 51.4338 39.4751H61.4338C61.4338 35.5212 58.2286 32.316 54.2748 32.316V42.316ZM57.1158 39.4751C57.1158 41.0441 55.8438 42.316 54.2748 42.316V32.316C50.321 32.316 47.1158 35.5212 47.1158 39.4751H57.1158ZM54.2748 36.6341C55.8438 36.6341 57.1158 37.9061 57.1158 39.4751H47.1158C47.1158 43.4289 50.321 46.6341 54.2748 46.6341V36.6341ZM268.204 233.745H263.319V243.745H268.204V233.745ZM273.204 255.32V238.745H263.204V255.32H273.204ZM285.128 250.32H268.204V260.32H285.128V250.32ZM290.128 260.205V255.32H280.128V260.205H290.128ZM268.204 265.205H285.128V255.205H268.204V265.205ZM273.204 277.128V260.205H263.204V277.128H273.204ZM263.319 282.128H268.204V272.128H263.319V282.128ZM258.319 260.205V277.128H268.319V260.205H258.319ZM246.745 265.205H263.319V255.205H246.745V265.205ZM241.745 255.32V260.205H251.745V255.32H241.745ZM263.319 250.32H246.745V260.32H263.319V250.32ZM258.319 238.745V255.32H268.319V238.745H258.319Z" fill="#00C5A3" mask="url(#path-37-inside-1_1_182)"/>
</g>
</g>
</svg>
